<mxfile modified="2022-02-18T05:07:05.727Z" host="app.diagrams.net" agent="5.0 (Windows NT 10.0; Win64; x64) AppleWebKit/537.36 (KHTML, like Gecko) Chrome/98.0.4758.82 Safari/537.36" etag="-jaoJt8m7QcWmE70jBvq" version="16.5.6" type="github">
  <diagram id="WI9T0HZ2pTsCkuznbFz-" name="Page-1">
    <mxGraphModel dx="1108" dy="450" grid="1" gridSize="10" guides="1" tooltips="1" connect="1" arrows="1" fold="1" page="1" pageScale="1" pageWidth="827" pageHeight="1169" math="0" shadow="0">
      <root>
        <mxCell id="0" />
        <mxCell id="1" parent="0" />
        <mxCell id="AcxdMaKK0mU5kZiv2lnr-41" style="edgeStyle=elbowEdgeStyle;rounded=0;orthogonalLoop=1;jettySize=auto;elbow=vertical;html=1;strokeColor=#808080;" parent="1" source="AcxdMaKK0mU5kZiv2lnr-31" target="AcxdMaKK0mU5kZiv2lnr-32" edge="1">
          <mxGeometry relative="1" as="geometry" />
        </mxCell>
        <mxCell id="AcxdMaKK0mU5kZiv2lnr-48" style="rounded=0;orthogonalLoop=1;jettySize=auto;elbow=vertical;html=1;strokeColor=#808080;startArrow=none;" parent="1" source="RLjyjs_sm2IHfBNOWAbh-5" edge="1">
          <mxGeometry relative="1" as="geometry">
            <mxPoint x="400" y="390" as="sourcePoint" />
            <mxPoint x="470" y="300" as="targetPoint" />
            <Array as="points">
              <mxPoint x="400" y="300" />
            </Array>
          </mxGeometry>
        </mxCell>
        <mxCell id="AcxdMaKK0mU5kZiv2lnr-45" style="edgeStyle=elbowEdgeStyle;rounded=0;orthogonalLoop=1;jettySize=auto;elbow=vertical;html=1;strokeColor=#808080;" parent="1" edge="1">
          <mxGeometry relative="1" as="geometry">
            <mxPoint x="895" y="600" as="sourcePoint" />
            <mxPoint x="895" y="748" as="targetPoint" />
          </mxGeometry>
        </mxCell>
        <mxCell id="AcxdMaKK0mU5kZiv2lnr-42" style="edgeStyle=elbowEdgeStyle;rounded=0;orthogonalLoop=1;jettySize=auto;elbow=vertical;html=1;strokeColor=#808080;" parent="1" source="AcxdMaKK0mU5kZiv2lnr-37" target="AcxdMaKK0mU5kZiv2lnr-31" edge="1">
          <mxGeometry relative="1" as="geometry" />
        </mxCell>
        <mxCell id="AcxdMaKK0mU5kZiv2lnr-43" style="edgeStyle=elbowEdgeStyle;rounded=0;orthogonalLoop=1;jettySize=auto;elbow=vertical;html=1;strokeColor=#808080;" parent="1" source="AcxdMaKK0mU5kZiv2lnr-38" target="AcxdMaKK0mU5kZiv2lnr-37" edge="1">
          <mxGeometry relative="1" as="geometry" />
        </mxCell>
        <mxCell id="AcxdMaKK0mU5kZiv2lnr-44" style="edgeStyle=elbowEdgeStyle;rounded=0;orthogonalLoop=1;jettySize=auto;elbow=vertical;html=1;entryX=1;entryY=0.5;entryDx=0;entryDy=0;strokeColor=#808080;" parent="1" target="AcxdMaKK0mU5kZiv2lnr-38" edge="1">
          <mxGeometry relative="1" as="geometry">
            <mxPoint x="858.5" y="785" as="sourcePoint" />
          </mxGeometry>
        </mxCell>
        <mxCell id="AcxdMaKK0mU5kZiv2lnr-31" value="GitHub" style="shape=image;verticalLabelPosition=bottom;labelBackgroundColor=#ffffff;verticalAlign=top;aspect=fixed;imageAspect=0;image=data:image/svg+xml,PHN2ZyB4bWxuczpjYz0iaHR0cDovL2NyZWF0aXZlY29tbW9ucy5vcmcvbnMjIiB4bWxuczpkYz0iaHR0cDovL3B1cmwub3JnL2RjL2VsZW1lbnRzLzEuMS8iIHhtbG5zOmlua3NjYXBlPSJodHRwOi8vd3d3Lmlua3NjYXBlLm9yZy9uYW1lc3BhY2VzL2lua3NjYXBlIiB4bWxuczpyZGY9Imh0dHA6Ly93d3cudzMub3JnLzE5OTkvMDIvMjItcmRmLXN5bnRheC1ucyMiIHhtbG5zOnNvZGlwb2RpPSJodHRwOi8vc29kaXBvZGkuc291cmNlZm9yZ2UubmV0L0RURC9zb2RpcG9kaS0wLmR0ZCIgeG1sbnM6c3ZnPSJodHRwOi8vd3d3LnczLm9yZy8yMDAwL3N2ZyIgeG1sbnM9Imh0dHA6Ly93d3cudzMub3JnLzIwMDAvc3ZnIiB4bWxuczp4bGluaz0iaHR0cDovL3d3dy53My5vcmcvMTk5OS94bGluayIgdmVyc2lvbj0iMS4xIiBpZD0ic3ZnMTc1NjcxIiBpbmtzY2FwZTp2ZXJzaW9uPSIwLjkyLjMgKDI0MDU1NDYsIDIwMTgtMDMtMTEpIiBzb2RpcG9kaTpkb2NuYW1lPSJnaXRodWIuc3ZnIiB4PSIwcHgiIHk9IjBweCIgdmlld0JveD0iMCAwIDQ1LjI3IDQ1LjI5IiBzdHlsZT0iZW5hYmxlLWJhY2tncm91bmQ6bmV3IDAgMCA0NS4yNyA0NS4yOTsiIHhtbDpzcGFjZT0icHJlc2VydmUiPiYjeGE7PHNvZGlwb2RpOm5hbWVkdmlldyBib3JkZXJjb2xvcj0iIzY2NjY2NiIgYm9yZGVyb3BhY2l0eT0iMSIgZml0LW1hcmdpbi1ib3R0b209IjAiIGZpdC1tYXJnaW4tbGVmdD0iMCIgZml0LW1hcmdpbi1yaWdodD0iMCIgZml0LW1hcmdpbi10b3A9IjAiIGdyaWR0b2xlcmFuY2U9IjEwIiBndWlkZXRvbGVyYW5jZT0iMTAiIGlkPSJuYW1lZHZpZXcxNzU2NzMiIGlua3NjYXBlOmN1cnJlbnQtbGF5ZXI9InN2ZzE3NTY3MSIgaW5rc2NhcGU6Y3g9IjMwLjE3ODAyNSIgaW5rc2NhcGU6Y3k9IjMwLjE5NDMxOSIgaW5rc2NhcGU6cGFnZW9wYWNpdHk9IjAiIGlua3NjYXBlOnBhZ2VzaGFkb3c9IjIiIGlua3NjYXBlOndpbmRvdy1oZWlnaHQ9IjEwMTciIGlua3NjYXBlOndpbmRvdy1tYXhpbWl6ZWQ9IjEiIGlua3NjYXBlOndpbmRvdy13aWR0aD0iMTkyMCIgaW5rc2NhcGU6d2luZG93LXg9Ii04IiBpbmtzY2FwZTp3aW5kb3cteT0iLTgiIGlua3NjYXBlOnpvb209IjEwLjA5NTE1OCIgb2JqZWN0dG9sZXJhbmNlPSIxMCIgcGFnZWNvbG9yPSIjZmZmZmZmIiBzaG93Z3JpZD0iZmFsc2UiPiYjeGE7CTwvc29kaXBvZGk6bmFtZWR2aWV3PiYjeGE7PGcgaWQ9ImcxNzU2NjkiIHRyYW5zZm9ybT0idHJhbnNsYXRlKC05LjU2MjU0MTcsLTkuNTYxMzEpIj4mI3hhOwk8dGl0bGUgaWQ9InRpdGxlMTc1NjU5Ij5QYWdlLTE8L3RpdGxlPiYjeGE7CTxnIGlkPSJncm91cDIyNTAtMSIgdHJhbnNmb3JtPSJ0cmFuc2xhdGUoOS41NjMwOCwtOS4zNzg2OSkiPiYjeGE7CQk8dGl0bGUgaWQ9InRpdGxlMTc1NjYxIj5HaXRIdWI8L3RpdGxlPiYjeGE7CQk8ZyBpZD0ic2hhcGUyMjUxLTIiPiYjeGE7CQkJPHRpdGxlIGlkPSJ0aXRsZTE3NTY2MyI+U2hlZXQuMjI1MTwvdGl0bGU+JiN4YTsJCQk8cGF0aCBpZD0icGF0aDE3NTY2NSIgaW5rc2NhcGU6Y29ubmVjdG9yLWN1cnZhdHVyZT0iMCIgZD0iTTIyLjYzLDE4Ljk0QzEwLjE0LDE4Ljk0LDAsMjkuMzMsMCw0Mi4xNSAgICAgYy0wLjA3LDkuODksNi4xNSwxOC43MywxNS40OCwyMi4wMWMxLjEzLDAuMjIsMS41NC0wLjUsMS41NC0xLjExYzAtMC42MiwwLTIuMDEsMC0zLjk1Yy02LjI5LDEuNDEtNy42Mi0zLjExLTcuNjItMy4xMSAgICAgYy0xLjAzLTIuNjgtMi41MS0zLjQtMi41MS0zLjRjLTIuMDYtMS40MSwwLjE1LTEuNDEsMC4xNS0xLjQxYzIuMjcsMC4xNiwzLjQ3LDIuMzksMy40NywyLjM5YzIuMDIsMy41NCw1LjMsMi41Miw2LjU4LDEuOTMgICAgIGMwLjEtMS4xNywwLjYtMi4yNiwxLjQyLTMuMUMxMy40OCw1MS44MSw4LjIsNDkuODIsOC4yLDQwLjkyYy0wLjA0LTIuMjksMC43OS00LjUxLDIuMzItNi4yMmMtMC42OS0yLTAuNjEtNC4xOSwwLjIyLTYuMTQgICAgIGMwLDAsMS45MS0wLjYyLDYuMjMsMi40YzMuNy0xLjA0LDcuNjItMS4wNCwxMS4zMiwwYzQuMzItMyw2LjIyLTIuMzcsNi4yMi0yLjM3YzAuODMsMS45NSwwLjkxLDQuMTQsMC4yMiw2LjE0ICAgICBjMS41MywxLjcsMi4zNywzLjkzLDIuMzMsNi4yMmMwLDguOTEtNS4yOSwxMC44OC0xMC4zMywxMS40NWMwLjgxLDAuNzEsMS41MywyLjEyLDEuNTMsNC4zYzAsMy4xMSwwLDUuNjEsMCw2LjM3ICAgICBjMCwwLjYyLDAuNDEsMS4zNCwxLjU2LDEuMTJjOS4zMy0zLjMsMTUuNTMtMTIuMTUsMTUuNDUtMjIuMDRDNDUuMjcsMjkuMzMsMzUuMTMsMTguOTQsMjIuNjMsMTguOTR6Ii8+JiN4YTsJCTwvZz4mI3hhOwk8L2c+JiN4YTs8L2c+JiN4YTs8L3N2Zz4=;spacingTop=4;" parent="1" vertex="1">
          <mxGeometry x="114.5" y="391.5" width="60" height="60" as="geometry" />
        </mxCell>
        <mxCell id="AcxdMaKK0mU5kZiv2lnr-32" value="continuous integration build pipeline" style="sketch=0;aspect=fixed;html=1;points=[];align=center;image;fontSize=12;image=img/lib/mscae/Azure_Pipelines.svg;fontFamily=Helvetica;fontColor=rgb(0, 0, 0);strokeColor=rgb(0, 0, 0);fillColor=rgb(255, 255, 255);" parent="1" vertex="1">
          <mxGeometry x="389.5" y="397.5" width="43" height="48" as="geometry" />
        </mxCell>
        <mxCell id="AcxdMaKK0mU5kZiv2lnr-34" value="redis" style="shape=image;verticalLabelPosition=bottom;labelBackgroundColor=#ffffff;verticalAlign=top;aspect=fixed;imageAspect=0;image=data:image/svg+xml,PHN2ZyB4bWxuczpjYz0iaHR0cDovL2NyZWF0aXZlY29tbW9ucy5vcmcvbnMjIiB4bWxuczpkYz0iaHR0cDovL3B1cmwub3JnL2RjL2VsZW1lbnRzLzEuMS8iIHhtbG5zOmlua3NjYXBlPSJodHRwOi8vd3d3Lmlua3NjYXBlLm9yZy9uYW1lc3BhY2VzL2lua3NjYXBlIiB4bWxuczpyZGY9Imh0dHA6Ly93d3cudzMub3JnLzE5OTkvMDIvMjItcmRmLXN5bnRheC1ucyMiIHhtbG5zOnNvZGlwb2RpPSJodHRwOi8vc29kaXBvZGkuc291cmNlZm9yZ2UubmV0L0RURC9zb2RpcG9kaS0wLmR0ZCIgeG1sbnM6c3ZnPSJodHRwOi8vd3d3LnczLm9yZy8yMDAwL3N2ZyIgeG1sbnM9Imh0dHA6Ly93d3cudzMub3JnLzIwMDAvc3ZnIiB4bWxuczp4bGluaz0iaHR0cDovL3d3dy53My5vcmcvMTk5OS94bGluayIgdmVyc2lvbj0iMS4xIiBpZD0ic3ZnOTMyMDEiIGlua3NjYXBlOnZlcnNpb249IjAuOTIuMyAoMjQwNTU0NiwgMjAxOC0wMy0xMSkiIHNvZGlwb2RpOmRvY25hbWU9InJlZGlzX2NhY2hlXzEuc3ZnIiB4PSIwcHgiIHk9IjBweCIgdmlld0JveD0iMCAwIDM3LjUxIDMxLjYiIHN0eWxlPSJlbmFibGUtYmFja2dyb3VuZDpuZXcgMCAwIDM3LjUxIDMxLjY7IiB4bWw6c3BhY2U9InByZXNlcnZlIj4mI3hhOzxzb2RpcG9kaTpuYW1lZHZpZXcgYm9yZGVyY29sb3I9IiM2NjY2NjYiIGJvcmRlcm9wYWNpdHk9IjEiIGZpdC1tYXJnaW4tYm90dG9tPSIwIiBmaXQtbWFyZ2luLWxlZnQ9IjAiIGZpdC1tYXJnaW4tcmlnaHQ9IjAiIGZpdC1tYXJnaW4tdG9wPSIwIiBncmlkdG9sZXJhbmNlPSIxMCIgZ3VpZGV0b2xlcmFuY2U9IjEwIiBpZD0ibmFtZWR2aWV3OTMyMDMiIGlua3NjYXBlOmN1cnJlbnQtbGF5ZXI9InN2ZzkzMjAxIiBpbmtzY2FwZTpjeD0iMzMuNTI0MjM1IiBpbmtzY2FwZTpjeT0iMTkuNzUxMjkxIiBpbmtzY2FwZTpwYWdlb3BhY2l0eT0iMCIgaW5rc2NhcGU6cGFnZXNoYWRvdz0iMiIgaW5rc2NhcGU6d2luZG93LWhlaWdodD0iMTAxNyIgaW5rc2NhcGU6d2luZG93LW1heGltaXplZD0iMSIgaW5rc2NhcGU6d2luZG93LXdpZHRoPSIxOTIwIiBpbmtzY2FwZTp3aW5kb3cteD0iLTgiIGlua3NjYXBlOndpbmRvdy15PSItOCIgaW5rc2NhcGU6em9vbT0iMTMuODg5MzQ4IiBvYmplY3R0b2xlcmFuY2U9IjEwIiBwYWdlY29sb3I9IiNmZmZmZmYiIHNob3dncmlkPSJmYWxzZSI+JiN4YTsJPC9zb2RpcG9kaTpuYW1lZHZpZXc+JiN4YTs8ZyBpZD0iZzkzMTk5IiB0cmFuc2Zvcm09InRyYW5zbGF0ZSgtMC43NDY3NjM4LC0wLjc1MTYyNSkiPiYjeGE7CTx0aXRsZSBpZD0idGl0bGU5MzExNSI+UGFnZS0xPC90aXRsZT4mI3hhOwk8ZyBpZD0iZ3JvdXA0OTc3LTEiIHRyYW5zZm9ybT0idHJhbnNsYXRlKDAuNDA3MjksLTAuNjA5Mzc1KSI+JiN4YTsJCTx0aXRsZSBpZD0idGl0bGU5MzExNyI+UmVkaXMgQ2FjaGUgIzE8L3RpdGxlPiYjeGE7CQk8ZyBpZD0iZ3JvdXA0OTc4LTIiPiYjeGE7CQkJPHRpdGxlIGlkPSJ0aXRsZTkzMTE5Ij5TaGVldC40OTc4PC90aXRsZT4mI3hhOwkJCTxnIGlkPSJzaGFwZTQ5NzktMyIgdHJhbnNmb3JtPSJ0cmFuc2xhdGUoMC4yMzcpIj4mI3hhOwkJCQk8dGl0bGUgaWQ9InRpdGxlOTMxMjEiPlNoZWV0LjQ5Nzk8L3RpdGxlPiYjeGE7CQkJCTxwYXRoIGlkPSJwYXRoOTMxMjMiIGlua3NjYXBlOmNvbm5lY3Rvci1jdXJ2YXR1cmU9IjAiIHN0eWxlPSJmaWxsOiNCQTE0MUE7IiBkPSJNMC4xMSwyNS4xOWMtMC4wNiwwLjQsMC4yOCwwLjgsMS4wMiwxLjExICAgICAgbDE1LjI0LDYuMjRjMS4zNywwLjU2LDMuNiwwLjU2LDQuOTcsMGwxNS4yNC02LjI0YzAuNzQtMC4zMSwxLjA4LTAuNzEsMS4wMi0xLjExdi0zLjU4YzAuMDUsMC4zOS0wLjI5LDAuNzktMS4wMiwxLjA5ICAgICAgbC0xNS4yNCw2LjI0Yy0xLjM3LDAuNTYtMy42LDAuNTYtNC45NywwTDEuMTMsMjIuN2MtMC44LTAuMzMtMS4xMy0wLjc4LTEtMS4yTDAuMTEsMjUuMTl6Ii8+JiN4YTsJCQk8L2c+JiN4YTsJCQk8ZyBpZD0ic2hhcGU0OTgwLTUiIHRyYW5zZm9ybT0idHJhbnNsYXRlKDAsLTMuNikiPiYjeGE7CQkJCTx0aXRsZSBpZD0idGl0bGU5MzEyNiI+U2hlZXQuNDk4MDwvdGl0bGU+JiN4YTsJCQkJPHBhdGggaWQ9InBhdGg5MzEyOCIgaW5rc2NhcGU6Y29ubmVjdG9yLWN1cnZhdHVyZT0iMCIgc3R5bGU9ImZpbGw6I0JBMTQxQTsiIGQ9Ik0zNi44MSwyNC4yNmMxLjM4LDAuNTcsMS4zOCwxLjQ4LDAsMi4wNCAgICAgIGwtMTUuMjMsNi4yNGMtMS4zNywwLjU2LTMuNiwwLjU2LTQuOTcsMEwxLjM3LDI2LjNDMCwyNS43NCwwLDI0LjgyLDEuMzcsMjQuMjZsMTUuMjQtNi4yNGMxLjM3LTAuNTYsMy42LTAuNTYsNC45NywwICAgICAgTDM2LjgxLDI0LjI2eiIvPiYjeGE7CQkJPC9nPiYjeGE7CQk8L2c+JiN4YTsJCTxnIGlkPSJncm91cDQ5ODEtNyIgdHJhbnNmb3JtPSJ0cmFuc2xhdGUoMCwtNi4zMTk1KSI+JiN4YTsJCQk8dGl0bGUgaWQ9InRpdGxlOTMxMzIiPlNoZWV0LjQ5ODE8L3RpdGxlPiYjeGE7CQkJPGcgaWQ9InNoYXBlNDk4Mi04IiB0cmFuc2Zvcm09InRyYW5zbGF0ZSgwLjIzNykiPiYjeGE7CQkJCTx0aXRsZSBpZD0idGl0bGU5MzEzNCI+U2hlZXQuNDk4MjwvdGl0bGU+JiN4YTsJCQkJPHBhdGggaWQ9InBhdGg5MzEzNiIgaW5rc2NhcGU6Y29ubmVjdG9yLWN1cnZhdHVyZT0iMCIgc3R5bGU9ImZpbGw6I0JBMTQxQTsiIGQ9Ik0wLjExLDI1LjE5Yy0wLjA2LDAuNCwwLjI4LDAuOCwxLjAyLDEuMTEgICAgICBsMTUuMjQsNi4yNGMxLjM3LDAuNTYsMy42LDAuNTYsNC45NywwbDE1LjI0LTYuMjRjMC43NC0wLjMxLDEuMDgtMC43MSwxLjAyLTEuMTF2LTMuNThjMC4wNSwwLjM5LTAuMjksMC43OS0xLjAyLDEuMDkgICAgICBsLTE1LjI0LDYuMjRjLTEuMzcsMC41Ni0zLjYsMC41Ni00Ljk3LDBMMS4xMywyMi43Yy0wLjgtMC4zMy0xLjEzLTAuNzgtMS0xLjJMMC4xMSwyNS4xOXoiLz4mI3hhOwkJCTwvZz4mI3hhOwkJCTxnIGlkPSJzaGFwZTQ5ODMtMTAiIHRyYW5zZm9ybT0idHJhbnNsYXRlKDAsLTMuNikiPiYjeGE7CQkJCTx0aXRsZSBpZD0idGl0bGU5MzEzOSI+U2hlZXQuNDk4MzwvdGl0bGU+JiN4YTsJCQkJPHBhdGggaWQ9InBhdGg5MzE0MSIgaW5rc2NhcGU6Y29ubmVjdG9yLWN1cnZhdHVyZT0iMCIgc3R5bGU9ImZpbGw6I0JBMTQxQTsiIGQ9Ik0zNi44MSwyNC4yNmMxLjM4LDAuNTcsMS4zOCwxLjQ4LDAsMi4wNCAgICAgIGwtMTUuMjMsNi4yNGMtMS4zNywwLjU2LTMuNiwwLjU2LTQuOTcsMEwxLjM3LDI2LjNDMCwyNS43NCwwLDI0LjgyLDEuMzcsMjQuMjZsMTUuMjQtNi4yNGMxLjM3LTAuNTYsMy42LTAuNTYsNC45NywwICAgICAgTDM2LjgxLDI0LjI2eiIvPiYjeGE7CQkJPC9nPiYjeGE7CQk8L2c+JiN4YTsJCTxnIGlkPSJncm91cDQ5ODQtMTIiPiYjeGE7CQkJPHRpdGxlIGlkPSJ0aXRsZTkzMTQ1Ij5TaGVldC40OTg0PC90aXRsZT4mI3hhOwkJCTxnIGlkPSJzaGFwZTQ5ODUtMTMiIHRyYW5zZm9ybT0idHJhbnNsYXRlKDAuMjM3LC0xMi42MzkpIj4mI3hhOwkJCQk8dGl0bGUgaWQ9InRpdGxlOTMxNDciPlNoZWV0LjQ5ODU8L3RpdGxlPiYjeGE7CQkJCTxwYXRoIGlkPSJwYXRoOTMxNDkiIGlua3NjYXBlOmNvbm5lY3Rvci1jdXJ2YXR1cmU9IjAiIHN0eWxlPSJmaWxsOiNCQTE0MUE7IiBkPSJNMC4xMSwyNS4xOWMtMC4wNiwwLjQsMC4yOCwwLjgsMS4wMiwxLjExICAgICAgbDE1LjI0LDYuMjRjMS4zNywwLjU2LDMuNiwwLjU2LDQuOTcsMGwxNS4yNC02LjI0YzAuNzQtMC4zMSwxLjA4LTAuNzEsMS4wMi0xLjExdi0zLjU4YzAuMDUsMC4zOS0wLjI5LDAuNzktMS4wMiwxLjA5ICAgICAgbC0xNS4yNCw2LjI0Yy0xLjM3LDAuNTYtMy42LDAuNTYtNC45NywwTDEuMTMsMjIuN2MtMC44LTAuMzMtMS4xMy0wLjc4LTEtMS4yTDAuMTEsMjUuMTl6Ii8+JiN4YTsJCQk8L2c+JiN4YTsJCQk8ZyBpZD0ic2hhcGU0OTg2LTE1IiB0cmFuc2Zvcm09InRyYW5zbGF0ZSgwLjIzNykiPiYjeGE7CQkJCTx0aXRsZSBpZD0idGl0bGU5MzE1MiI+U2hlZXQuNDk4NjwvdGl0bGU+JiN4YTsJCQkJPHBhdGggaWQ9InBhdGg5MzE1NCIgaW5rc2NhcGU6Y29ubmVjdG9yLWN1cnZhdHVyZT0iMCIgc3R5bGU9ImZpbGw6IzFFMUUxRTtmaWxsLW9wYWNpdHk6MC4yNTsiIGQ9Ik0wLjExLDI1LjE5ICAgICAgYy0wLjA2LDAuNCwwLjI4LDAuOCwxLjAyLDEuMTFsMTUuMjQsNi4yNGMxLjM3LDAuNTYsMy42LDAuNTYsNC45NywwbDE1LjI0LTYuMjRjMC43NC0wLjMxLDEuMDgtMC43MSwxLjAyLTEuMTF2LTMuNTggICAgICBjMC4wNSwwLjM5LTAuMjksMC43OS0xLjAyLDEuMDlsLTE1LjI0LDYuMjRjLTEuMzcsMC41Ni0zLjYsMC41Ni00Ljk3LDBMMS4xMywyMi43Yy0wLjgtMC4zMy0xLjEzLTAuNzgtMS0xLjJMMC4xMSwyNS4xOXoiLz4mI3hhOwkJCTwvZz4mI3hhOwkJCTxnIGlkPSJzaGFwZTQ5ODctMTciIHRyYW5zZm9ybT0idHJhbnNsYXRlKDAuMjM3LC02LjMxOTUpIj4mI3hhOwkJCQk8dGl0bGUgaWQ9InRpdGxlOTMxNTciPlNoZWV0LjQ5ODc8L3RpdGxlPiYjeGE7CQkJCTxwYXRoIGlkPSJwYXRoOTMxNTkiIGlua3NjYXBlOmNvbm5lY3Rvci1jdXJ2YXR1cmU9IjAiIHN0eWxlPSJmaWxsOiMxRTFFMUU7ZmlsbC1vcGFjaXR5OjAuMjU7IiBkPSJNMC4xMSwyNS4xOSAgICAgIGMtMC4wNiwwLjQsMC4yOCwwLjgsMS4wMiwxLjExbDE1LjI0LDYuMjRjMS4zNywwLjU2LDMuNiwwLjU2LDQuOTcsMGwxNS4yNC02LjI0YzAuNzQtMC4zMSwxLjA4LTAuNzEsMS4wMi0xLjExdi0zLjU4ICAgICAgYzAuMDUsMC4zOS0wLjI5LDAuNzktMS4wMiwxLjA5bC0xNS4yNCw2LjI0Yy0xLjM3LDAuNTYtMy42LDAuNTYtNC45NywwTDEuMTMsMjIuN2MtMC44LTAuMzMtMS4xMy0wLjc4LTEtMS4yTDAuMTEsMjUuMTl6Ii8+JiN4YTsJCQk8L2c+JiN4YTsJCQk8ZyBpZD0ic2hhcGU0OTg4LTE5IiB0cmFuc2Zvcm09InRyYW5zbGF0ZSgwLjIzNywtMTIuNjM5KSI+JiN4YTsJCQkJPHRpdGxlIGlkPSJ0aXRsZTkzMTYyIj5TaGVldC40OTg4PC90aXRsZT4mI3hhOwkJCQk8cGF0aCBpZD0icGF0aDkzMTY0IiBpbmtzY2FwZTpjb25uZWN0b3ItY3VydmF0dXJlPSIwIiBzdHlsZT0iZmlsbDojMUUxRTFFO2ZpbGwtb3BhY2l0eTowLjI1OyIgZD0iTTAuMTEsMjUuMTkgICAgICBjLTAuMDYsMC40LDAuMjgsMC44LDEuMDIsMS4xMWwxNS4yNCw2LjI0YzEuMzcsMC41NiwzLjYsMC41Niw0Ljk3LDBsMTUuMjQtNi4yNGMwLjc0LTAuMzEsMS4wOC0wLjcxLDEuMDItMS4xMXYtMy41OCAgICAgIGMwLjA1LDAuMzktMC4yOSwwLjc5LTEuMDIsMS4wOWwtMTUuMjQsNi4yNGMtMS4zNywwLjU2LTMuNiwwLjU2LTQuOTcsMEwxLjEzLDIyLjdjLTAuOC0wLjMzLTEuMTMtMC43OC0xLTEuMkwwLjExLDI1LjE5eiIvPiYjeGE7CQkJPC9nPiYjeGE7CQkJPGcgaWQ9InNoYXBlNDk4OS0yMSIgdHJhbnNmb3JtPSJ0cmFuc2xhdGUoMCwtMTYuMjM5KSI+JiN4YTsJCQkJPHRpdGxlIGlkPSJ0aXRsZTkzMTY3Ij5TaGVldC40OTg5PC90aXRsZT4mI3hhOwkJCQk8cGF0aCBpZD0icGF0aDkzMTY5IiBpbmtzY2FwZTpjb25uZWN0b3ItY3VydmF0dXJlPSIwIiBzdHlsZT0iZmlsbDojQkExNDFBOyIgZD0iTTM2LjgxLDI0LjI2YzEuMzgsMC41NywxLjM4LDEuNDgsMCwyLjA0ICAgICAgbC0xNS4yMyw2LjI0Yy0xLjM3LDAuNTYtMy42LDAuNTYtNC45NywwTDEuMzcsMjYuM0MwLDI1Ljc0LDAsMjQuODIsMS4zNywyNC4yNmwxNS4yNC02LjI0YzEuMzctMC41NiwzLjYtMC41Niw0Ljk3LDAgICAgICBMMzYuODEsMjQuMjZ6Ii8+JiN4YTsJCQk8L2c+JiN4YTsJCTwvZz4mI3hhOwkJPGcgaWQ9InNoYXBlNDk5MC0yMyIgdHJhbnNmb3JtPSJ0cmFuc2xhdGUoNi4zNjE1LC0yMi4xMTIzKSI+JiN4YTsJCQk8dGl0bGUgaWQ9InRpdGxlOTMxNzMiPlNoZWV0LjQ5OTA8L3RpdGxlPiYjeGE7CQkJPHBhdGggaWQ9InBhdGg5MzE3NSIgaW5rc2NhcGU6Y29ubmVjdG9yLWN1cnZhdHVyZT0iMCIgc3R5bGU9ImZpbGw6I0ZGRkZGRjsiIGQ9Ik04LjA0LDMyLjMzYy0xLjc0LDAuNzctNC41NiwwLjc3LTYuMywwICAgICBDMCwzMS41NiwwLDMwLjMsMS43NCwyOS41M2MxLjc0LTAuNzcsNC41Ni0wLjc3LDYuMywwQzkuNzcsMzAuMyw5Ljc4LDMxLjU2LDguMDQsMzIuMzN6Ii8+JiN4YTsJCTwvZz4mI3hhOwkJPGcgaWQ9InNoYXBlNDk5MS0yNSIgdHJhbnNmb3JtPSJ0cmFuc2xhdGUoMTMuMjE4LC0xNy45ODgpIj4mI3hhOwkJCTx0aXRsZSBpZD0idGl0bGU5MzE3OCI+U2hlZXQuNDk5MTwvdGl0bGU+JiN4YTsJCQk8cGF0aCBpZD0icGF0aDkzMTgwIiBpbmtzY2FwZTpjb25uZWN0b3ItY3VydmF0dXJlPSIwIiBzdHlsZT0iZmlsbDojRkZGRkZGOyIgZD0iTTAsMzAuMmw4LjkyLTEuMDZMNi41MywzMy4xTDAsMzAuMnoiLz4mI3hhOwkJPC9nPiYjeGE7CQk8ZyBpZD0ic2hhcGU0OTkyLTI3IiB0cmFuc2Zvcm09InRyYW5zbGF0ZSgyMS44NjQsLTIxLjg5MSkiPiYjeGE7CQkJPHRpdGxlIGlkPSJ0aXRsZTkzMTgzIj5TaGVldC40OTkyPC90aXRsZT4mI3hhOwkJCTxwYXRoIGlkPSJwYXRoOTMxODUiIGlua3NjYXBlOmNvbm5lY3Rvci1jdXJ2YXR1cmU9IjAiIHN0eWxlPSJmaWxsOiMxRTFFMUU7ZmlsbC1vcGFjaXR5OjAuMjU7IiBkPSJNNS4zNCwzMy4xTDAsMzAuNzNsNS4zNC0yLjM3ICAgICBsNS4zMywyLjM3TDUuMzQsMzMuMXoiLz4mI3hhOwkJPC9nPiYjeGE7CQk8ZyBpZD0ic2hhcGU0OTkzLTI5IiB0cmFuc2Zvcm09InRyYW5zbGF0ZSgyMS44NjQsLTIxLjg5MSkiPiYjeGE7CQkJPHRpdGxlIGlkPSJ0aXRsZTkzMTg4Ij5TaGVldC40OTkzPC90aXRsZT4mI3hhOwkJCTxwYXRoIGlkPSJwYXRoOTMxOTAiIGlua3NjYXBlOmNvbm5lY3Rvci1jdXJ2YXR1cmU9IjAiIHN0eWxlPSJmaWxsOiMxRTFFMUU7ZmlsbC1vcGFjaXR5OjAuMjU7IiBkPSJNNS4zNCwzMy4xTDAsMzAuNzNsNS4zNC0yLjM3ICAgICBWMzMuMXoiLz4mI3hhOwkJPC9nPiYjeGE7CQk8ZyBpZD0ic2hhcGU0OTk0LTMxIiB0cmFuc2Zvcm09InRyYW5zbGF0ZSgxMy44OTY3LC0yNS42MTU1KSI+JiN4YTsJCQk8dGl0bGUgaWQ9InRpdGxlOTMxOTMiPlNoZWV0LjQ5OTQ8L3RpdGxlPiYjeGE7CQkJPHBhdGggaWQ9InBhdGg5MzE5NSIgaW5rc2NhcGU6Y29ubmVjdG9yLWN1cnZhdHVyZT0iMCIgc3R5bGU9ImZpbGw6I0ZGRkZGRjsiIGQ9Ik0zLjQ4LDMxLjU1TDAsMzEuMjRsMy4wOS0wLjc4bC0wLjQtMS41NyAgICAgbDIuNjIsMS4wN2wzLjI0LTAuNjZsLTEuNDgsMS40NGwyLjQxLDEuMTdsLTMuNTQtMC4xOEw0LjE5LDMzLjFMMy40OCwzMS41NXoiLz4mI3hhOwkJPC9nPiYjeGE7CTwvZz4mI3hhOzwvZz4mI3hhOzwvc3ZnPg==;fontFamily=Helvetica;fontSize=12;fontColor=rgb(0, 0, 0);align=center;strokeColor=rgb(0, 0, 0);fillColor=rgb(255, 255, 255);" parent="1" vertex="1">
          <mxGeometry x="640" y="534" width="66" height="33" as="geometry" />
        </mxCell>
        <mxCell id="AcxdMaKK0mU5kZiv2lnr-37" value="Visual Studio&#xa;Code" style="shape=image;verticalLabelPosition=bottom;labelBackgroundColor=none;verticalAlign=top;aspect=fixed;imageAspect=0;image=data:image/svg+xml,PHN2ZyB4bWxuczpkYz0iaHR0cDovL3B1cmwub3JnL2RjL2VsZW1lbnRzLzEuMS8iIHhtbG5zOmNjPSJodHRwOi8vY3JlYXRpdmVjb21tb25zLm9yZy9ucyMiIHhtbG5zOnJkZj0iaHR0cDovL3d3dy53My5vcmcvMTk5OS8wMi8yMi1yZGYtc3ludGF4LW5zIyIgeG1sbnM6c3ZnPSJodHRwOi8vd3d3LnczLm9yZy8yMDAwL3N2ZyIgeG1sbnM9Imh0dHA6Ly93d3cudzMub3JnLzIwMDAvc3ZnIiB4bWxuczp4bGluaz0iaHR0cDovL3d3dy53My5vcmcvMTk5OS94bGluayIgeG1sbnM6c29kaXBvZGk9Imh0dHA6Ly9zb2RpcG9kaS5zb3VyY2Vmb3JnZS5uZXQvRFREL3NvZGlwb2RpLTAuZHRkIiB4bWxuczppbmtzY2FwZT0iaHR0cDovL3d3dy5pbmtzY2FwZS5vcmcvbmFtZXNwYWNlcy9pbmtzY2FwZSIgdmVyc2lvbj0iMS4xIiBpZD0iTGF5ZXJfMSIgeD0iMHB4IiB5PSIwcHgiIHZpZXdCb3g9IjAgMCA1MC44NDk5OTggNTEuMDkiIHhtbDpzcGFjZT0icHJlc2VydmUiIHNvZGlwb2RpOmRvY25hbWU9InZpc3VhbF9zdHVkaW9fY29kZS5zdmciIHdpZHRoPSI1MC44NDk5OTgiIGhlaWdodD0iNTEuMDkiIGlua3NjYXBlOnZlcnNpb249IjAuOTIuMyAoMjQwNTU0NiwgMjAxOC0wMy0xMSkiPjxtZXRhZGF0YSBpZD0ibWV0YWRhdGE0MzE4OSI+PHJkZjpSREY+PGNjOldvcmsgcmRmOmFib3V0PSIiPjxkYzpmb3JtYXQ+aW1hZ2Uvc3ZnK3htbDwvZGM6Zm9ybWF0PjxkYzp0eXBlIHJkZjpyZXNvdXJjZT0iaHR0cDovL3B1cmwub3JnL2RjL2RjbWl0eXBlL1N0aWxsSW1hZ2UiLz48ZGM6dGl0bGUvPjwvY2M6V29yaz48L3JkZjpSREY+PC9tZXRhZGF0YT48ZGVmcyBpZD0iZGVmczQzMTg3Ii8+PHNvZGlwb2RpOm5hbWVkdmlldyBwYWdlY29sb3I9IiNmZmZmZmYiIGJvcmRlcmNvbG9yPSIjNjY2NjY2IiBib3JkZXJvcGFjaXR5PSIxIiBvYmplY3R0b2xlcmFuY2U9IjEwIiBncmlkdG9sZXJhbmNlPSIxMCIgZ3VpZGV0b2xlcmFuY2U9IjEwIiBpbmtzY2FwZTpwYWdlb3BhY2l0eT0iMCIgaW5rc2NhcGU6cGFnZXNoYWRvdz0iMiIgaW5rc2NhcGU6d2luZG93LXdpZHRoPSIxOTIwIiBpbmtzY2FwZTp3aW5kb3ctaGVpZ2h0PSIxMDE3IiBpZD0ibmFtZWR2aWV3NDMxODUiIHNob3dncmlkPSJmYWxzZSIgZml0LW1hcmdpbi10b3A9IjAiIGZpdC1tYXJnaW4tbGVmdD0iMCIgZml0LW1hcmdpbi1yaWdodD0iMCIgZml0LW1hcmdpbi1ib3R0b209IjAiIGlua3NjYXBlOnpvb209IjEuMDMwMzAzIiBpbmtzY2FwZTpjeD0iLTYuNTU1IiBpbmtzY2FwZTpjeT0iLTI5Ni4wNyIgaW5rc2NhcGU6d2luZG93LXg9Ii04IiBpbmtzY2FwZTp3aW5kb3cteT0iLTgiIGlua3NjYXBlOndpbmRvdy1tYXhpbWl6ZWQ9IjEiIGlua3NjYXBlOmN1cnJlbnQtbGF5ZXI9IkxheWVyXzEiLz4mI3hhOyYjeGE7PGcgaWQ9Imc0MzE4MiIgdHJhbnNmb3JtPSJ0cmFuc2xhdGUoLTMwMy45MywtNzMuNTkpIj4mI3hhOwk8ZGVmcyBpZD0iZGVmczQzMTY3Ij4mI3hhOwkJPHJlY3QgaWQ9IlNWR0lEXzNfIiB4PSIzMDMuOTI5OTkiIHk9IjczLjU4OTk5NiIgd2lkdGg9IjUxLjI1IiBoZWlnaHQ9IjUxLjI1Ii8+JiN4YTsJPC9kZWZzPiYjeGE7CTxjbGlwUGF0aCBpZD0iU1ZHSURfNF8iPiYjeGE7CQk8dXNlIHhsaW5rOmhyZWY9IiNTVkdJRF8zXyIgc3R5bGU9Im92ZXJmbG93OnZpc2libGUiIGlkPSJ1c2U0MzE2OSIgeD0iMCIgeT0iMCIgd2lkdGg9IjEwMCUiIGhlaWdodD0iMTAwJSIvPiYjeGE7CTwvY2xpcFBhdGg+JiN4YTsJPGcgY2xpcC1wYXRoPSJ1cmwoI1NWR0lEXzRfKSIgaWQ9Imc0MzE4MCI+JiN4YTsJCTxkZWZzIGlkPSJkZWZzNDMxNzMiPiYjeGE7CQkJPHJlY3QgaWQ9IlNWR0lEXzVfIiB4PSIzMDMuOTI5OTkiIHk9IjczLjU4OTk5NiIgd2lkdGg9IjUxLjI1IiBoZWlnaHQ9IjUxLjI1Ii8+JiN4YTsJCTwvZGVmcz4mI3hhOwkJPGNsaXBQYXRoIGlkPSJTVkdJRF82XyI+JiN4YTsJCQk8dXNlIHhsaW5rOmhyZWY9IiNTVkdJRF81XyIgc3R5bGU9Im92ZXJmbG93OnZpc2libGUiIGlkPSJ1c2U0MzE3NSIgeD0iMCIgeT0iMCIgd2lkdGg9IjEwMCUiIGhlaWdodD0iMTAwJSIvPiYjeGE7CQk8L2NsaXBQYXRoPiYjeGE7CQk8cGF0aCBzdHlsZT0iZmlsbDojMDE3OWNiIiBkPSJtIDMwOS44NywxMDUuMDIgNi4yMywtNS42NiAtNi4yMywtNi4yMyBWIDEwNSBaIG0gMzEuNTEsMy4zIFYgODkuOTUgbCAtMTEuODksOS4xOSAxMS44Nyw5LjE3IGggMC4wMiB6IG0gLTE5LjM1LC0zLjQ0IC0xMi42LDkuNzggLTUuNSwtMi43IFYgODYuMzUgbCA1LjQ4LC0yLjc2IDEyLjUyLDkuODQgMTkuODIsLTE5Ljg0IDEzLjAzLDUuMjMgdiA0MC41OSBsIC0xMi45OCw1LjI3IHoiIGNsaXAtcGF0aD0idXJsKCNTVkdJRF82XykiIGlkPSJwYXRoNDMxNzgiIGlua3NjYXBlOmNvbm5lY3Rvci1jdXJ2YXR1cmU9IjAiLz4mI3hhOwk8L2c+JiN4YTs8L2c+JiN4YTs8L3N2Zz4=;" parent="1" vertex="1">
          <mxGeometry x="119" y="759" width="51" height="51" as="geometry" />
        </mxCell>
        <mxCell id="AcxdMaKK0mU5kZiv2lnr-38" value="Engineer" style="shape=image;verticalLabelPosition=bottom;labelBackgroundColor=none;verticalAlign=top;aspect=fixed;imageAspect=0;image=data:image/svg+xml,PHN2ZyB4bWxuczpjYz0iaHR0cDovL2NyZWF0aXZlY29tbW9ucy5vcmcvbnMjIiB4bWxuczpkYz0iaHR0cDovL3B1cmwub3JnL2RjL2VsZW1lbnRzLzEuMS8iIHhtbG5zOmlua3NjYXBlPSJodHRwOi8vd3d3Lmlua3NjYXBlLm9yZy9uYW1lc3BhY2VzL2lua3NjYXBlIiB4bWxuczpyZGY9Imh0dHA6Ly93d3cudzMub3JnLzE5OTkvMDIvMjItcmRmLXN5bnRheC1ucyMiIHhtbG5zOnNvZGlwb2RpPSJodHRwOi8vc29kaXBvZGkuc291cmNlZm9yZ2UubmV0L0RURC9zb2RpcG9kaS0wLmR0ZCIgeG1sbnM6c3ZnPSJodHRwOi8vd3d3LnczLm9yZy8yMDAwL3N2ZyIgeG1sbnM9Imh0dHA6Ly93d3cudzMub3JnLzIwMDAvc3ZnIiB4bWxuczp4bGluaz0iaHR0cDovL3d3dy53My5vcmcvMTk5OS94bGluayIgdmVyc2lvbj0iMS4xIiBpZD0ic3ZnMzExODM2IiBpbmtzY2FwZTp2ZXJzaW9uPSIwLjkyLjMgKDI0MDU1NDYsIDIwMTgtMDMtMTEpIiBzb2RpcG9kaTpkb2NuYW1lPSJkZXZlbG9wZXJfNS5zdmciIHg9IjBweCIgeT0iMHB4IiB2aWV3Qm94PSIwIDAgMTkuMjkgNDguMDciIHN0eWxlPSJlbmFibGUtYmFja2dyb3VuZDpuZXcgMCAwIDE5LjI5IDQ4LjA3OyIgeG1sOnNwYWNlPSJwcmVzZXJ2ZSI+JiN4YTs8c29kaXBvZGk6bmFtZWR2aWV3IGJvcmRlcmNvbG9yPSIjNjY2NjY2IiBib3JkZXJvcGFjaXR5PSIxIiBmaXQtbWFyZ2luLWJvdHRvbT0iMCIgZml0LW1hcmdpbi1sZWZ0PSIwIiBmaXQtbWFyZ2luLXJpZ2h0PSIwIiBmaXQtbWFyZ2luLXRvcD0iMCIgZ3JpZHRvbGVyYW5jZT0iMTAiIGd1aWRldG9sZXJhbmNlPSIxMCIgaWQ9Im5hbWVkdmlldzMxMTgzOCIgaW5rc2NhcGU6Y3VycmVudC1sYXllcj0ic3ZnMzExODM2IiBpbmtzY2FwZTpjeD0iMTIuODYzMjIyIiBpbmtzY2FwZTpjeT0iMzIuMDQ4MDkyIiBpbmtzY2FwZTpwYWdlb3BhY2l0eT0iMCIgaW5rc2NhcGU6cGFnZXNoYWRvdz0iMiIgaW5rc2NhcGU6d2luZG93LWhlaWdodD0iMTAxNyIgaW5rc2NhcGU6d2luZG93LW1heGltaXplZD0iMSIgaW5rc2NhcGU6d2luZG93LXdpZHRoPSIxOTIwIiBpbmtzY2FwZTp3aW5kb3cteD0iLTgiIGlua3NjYXBlOndpbmRvdy15PSItOCIgaW5rc2NhcGU6em9vbT0iMTMuNTI3NzczIiBvYmplY3R0b2xlcmFuY2U9IjEwIiBwYWdlY29sb3I9IiNmZmZmZmYiIHNob3dncmlkPSJmYWxzZSI+JiN4YTsJPC9zb2RpcG9kaTpuYW1lZHZpZXc+JiN4YTs8ZyBpZD0iZzMxMTgzNCIgdHJhbnNmb3JtPSJ0cmFuc2xhdGUoLTAuMDAxNzcxNzcsMC4wMDM0KSI+JiN4YTsJPHRpdGxlIGlkPSJ0aXRsZTMxMTYyOSI+UGFnZS0xPC90aXRsZT4mI3hhOwk8ZyBpZD0iZ3JvdXA3MDY1LTEiPiYjeGE7CQk8dGl0bGUgaWQ9InRpdGxlMzExNjMxIj5EZXZlbG9wZXIgIzU8L3RpdGxlPiYjeGE7CQk8ZyBpZD0ic2hhcGU3MDY2LTIiIHRyYW5zZm9ybT0idHJhbnNsYXRlKDExLjQ3MzcsLTEuMzYyMjQpIj4mI3hhOwkJCTx0aXRsZSBpZD0idGl0bGUzMTE2MzMiPlNoZWV0LjcwNjY8L3RpdGxlPiYjeGE7CQkJPHBhdGggaWQ9InBhdGgzMTE2MzUiIGlua3NjYXBlOmNvbm5lY3Rvci1jdXJ2YXR1cmU9IjAiIGQ9Ik0wLDQ3Ljk3bDIuMzEsMC4xbDAuMDItMi45MmgtMi4xTDAsNDcuOTd6Ii8+JiN4YTsJCTwvZz4mI3hhOwkJPGcgaWQ9InNoYXBlNzA2Ny00IiB0cmFuc2Zvcm09InRyYW5zbGF0ZSgxMC44OTA0KSI+JiN4YTsJCQk8dGl0bGUgaWQ9InRpdGxlMzExNjM4Ij5TaGVldC43MDY3PC90aXRsZT4mI3hhOwkJCTxwYXRoIGlkPSJwYXRoMzExNjQwIiBpbmtzY2FwZTpjb25uZWN0b3ItY3VydmF0dXJlPSIwIiBzdHlsZT0iZmlsbDojNUMyRDkxOyIgZD0iTTAsNDcuODZjMi4xNiwwLjExLDIuMTYsMC4xMSwyLjE2LDAuMTEgICAgIGMwLjEyLTAuMzMsMC4xMi0wLjMzLDAuMTItMC4zM2MwLjcxLDAuMTEsMi4xNiwwLjMzLDIuOTgsMC40M2MwLjU2LDAsMS4zNCwwLDEuNzktMC4yMWMwLDAsMC4xNC0wLjExLDAuMTQtMC4yMiAgICAgYzAtMC44Ni0zLjQyLTEuMzItNC4zMS0yLjNjLTAuMTIsMC0wLjEyLDAtMC4xMiwwQzIuNSw0NS41NiwyLjI4LDQ2LDEuNzMsNDZjLTAuNTYsMC0xLjAxLTAuNTUtMS4yNC0wLjY2ICAgICBDMC4xMiw0NS41NiwwLDQ3Ljc1LDAsNDcuODZ6Ii8+JiN4YTsJCTwvZz4mI3hhOwkJPGcgaWQ9InNoYXBlNzA2OC02IiB0cmFuc2Zvcm09InRyYW5zbGF0ZSgzLjExMjg1LC0wLjM4OTIxMykiPiYjeGE7CQkJPHRpdGxlIGlkPSJ0aXRsZTMxMTY0MyI+U2hlZXQuNzA2ODwvdGl0bGU+JiN4YTsJCQk8cGF0aCBpZD0icGF0aDMxMTY0NSIgaW5rc2NhcGU6Y29ubmVjdG9yLWN1cnZhdHVyZT0iMCIgc3R5bGU9ImZpbGw6IzVDMkQ5MTsiIGQ9Ik0xLjE1LDQ1LjM0YzAsMC40OCwwLDAuNDgsMCwwLjQ4ICAgICBDMCw0Ny4zNSwwLDQ3LjM1LDAsNDcuMzVjMCwwLjUxLDAsMC41MSwwLDAuNTFjMCwwLjExLDAuMTEsMC4yMSwwLjIyLDAuMjFjMi40NywwLDIuNDcsMCwyLjQ3LDBjMC4yNSwwLDAuNDItMC4yMSwwLjQyLTAuNDMgICAgIGMwLTEuNDksMC0xLjQ5LDAtMS40OWMwLTAuNDgsMC0wLjQ4LDAtMC40OGMwLTAuMzMsMC0wLjMzLDAtMC4zM0wxLjE1LDQ1LjM0eiIvPiYjeGE7CQk8L2c+JiN4YTsJCTxnIGlkPSJzaGFwZTcwNjktOCIgdHJhbnNmb3JtPSJ0cmFuc2xhdGUoNC4yNzk0OCwtMy4xMTM3KSI+JiN4YTsJCQk8dGl0bGUgaWQ9InRpdGxlMzExNjQ4Ij5TaGVldC43MDY5PC90aXRsZT4mI3hhOwkJCTxwYXRoIGlkPSJwYXRoMzExNjUwIiBpbmtzY2FwZTpjb25uZWN0b3ItY3VydmF0dXJlPSIwIiBzdHlsZT0iZmlsbDojMDA3OEQ3OyIgZD0iTTcuMyw0OC4wN2MtMC4xOC0xLjE3LDAuMjMtNi45NC0wLjAzLTExLjA4ICAgICBjLTAuMjYtNC4wNC0xLjI1LTUuNjktMS4yNS01LjY5cy0wLjMzLTAuMjItMC40MSwwLjFjLTAuMDMsMC4xNS0xLjg4LDUuMy0xLjg4LDUuM3MtMS4yMSw5LjM1LTEuNywxMS4zN2MtMi4wMywwLTIuMDMsMC0yLjAzLDAgICAgIGMwLjUyLTEyLjAxLDAuNTItMTIuMDEsMC41Mi0xMi4wMWMwLjg5LTguNjIsMC44OS04LjYyLDAuODktOC42MmM4LjM3LTMuMzEsOC4zNy0zLjMxLDguMzctMy4zMWMtMC4yMywxLjE4LDAuOTEsNy4yLDAuODgsMTIuNzUgICAgIGMtMC4wOCw0LjY5LTEuMTQsMTAuMzEtMS4xMSwxMS4xOUw3LjMsNDguMDd6Ii8+JiN4YTsJCTwvZz4mI3hhOwkJPGcgaWQ9InNoYXBlNzA3MC0xMCIgdHJhbnNmb3JtPSJ0cmFuc2xhdGUoMy44OTA2LC0yLjkxOTA5KSI+JiN4YTsJCQk8dGl0bGUgaWQ9InRpdGxlMzExNjUzIj5TaGVldC43MDcwPC90aXRsZT4mI3hhOwkJCTxwYXRoIGlkPSJwYXRoMzExNjU1IiBpbmtzY2FwZTpjb25uZWN0b3ItY3VydmF0dXJlPSIwIiBzdHlsZT0iZmlsbDojMDA3OEQ3OyIgZD0iTTIuNjEsNDguMDdjLTIuNjEsMC0yLjYxLDAtMi42MSwwICAgICBjMC41Ni0xMi4zNCwwLjU2LTEyLjM0LDAuNTYtMTIuMzRjMC44Ny04Ljc5LDAuODctOC43OSwwLjg3LTguNzljOS4wNS0zLjU5LDkuMDUtMy41OSw5LjA1LTMuNTljLTAuMTEsMC41Ni0wLjExLDAuNTYtMC4xMSwwLjU2ICAgICBjLTAuMDgsMC40OCwwLjA3LDEuOTQsMC4yNSwzLjYzYzAuMjksMi40NCwwLjY2LDUuODEsMC42Miw5LjAzYy0wLjA0LDMuMDgtMC41MSw2LjU2LTAuODQsOC44M2MtMC4xNCwxLjE3LTAuMjUsMi4wNS0wLjI1LDIuMzQgICAgIGMwLjAzLDAuMzMsMC4wMywwLjMzLDAuMDMsMC4zM2MtMi44MywwLTIuODMsMC0yLjgzLDBjLTAuMDctMC4yNi0wLjA3LTAuMjYtMC4wNy0wLjI2Yy0wLjA3LTAuNTQtMC4wNC0xLjkzLDAtMy43ICAgICBjMC4wNy0yLjI2LDAuMTEtNS4wOC0wLjA0LTcuNDNjLTAuMTgtMy4xOC0wLjg1LTQuODMtMS4wNy01LjM0Yy0wLjI5LDAuODEtMS41NCw0LjI5LTEuODMsNS4xMmMtMC4wNywwLjctMS4yMiw5LjM4LTEuNjksMTEuMzUgICAgIEwyLjYxLDQ4LjA3eiBNMC42Nyw0Ny40NWMxLjQzLDAsMS40MywwLDEuNDMsMGMwLjUxLTIuNDEsMS42Mi0xMS4wMiwxLjY2LTExLjFjMC0wLjA3LDAtMC4wNywwLTAuMDdjMC43Mi0yLDEuODMtNS4xMiwxLjg3LTUuMjYgICAgIGMwLjA3LTAuMjIsMC4yMi0wLjMsMC4yOS0wLjMzYzAuMjktMC4xMSwwLjU1LDAuMDMsMC41OSwwLjA3YzAuMDgsMC4wNCwwLjA4LDAuMDQsMC4wOCwwLjA0YzAuMDMsMC4wNywwLjAzLDAuMDcsMC4wMywwLjA3ICAgICBjMC4wNCwwLjA3LDAuOTksMS43NSwxLjI0LDUuNzhjMC4xNSwyLjM4LDAuMDgsNS4yLDAuMDQsNy40NmMtMC4wNCwxLjQ0LTAuMDcsMi43Mi0wLjA0LDMuMzRjMS42OSwwLDEuNjksMCwxLjY5LDAgICAgIGMwLTAuNDQsMC4xMS0xLjEzLDAuMjctMi4xMmMwLjI5LTIuMjcsMC43Ni01LjcyLDAuOC04Ljc2YzAuMDQtMy4xOC0wLjMzLTYuNTItMC41OC04Ljk2Yy0wLjE4LTEuNTEtMC4yOS0yLjYtMC4yOS0zLjMgICAgIGMtNy43MiwzLjA4LTcuNzIsMy4wOC03LjcyLDMuMDhjLTAuODUsOC4zOC0wLjg1LDguMzgtMC44NSw4LjM4TDAuNjcsNDcuNDV6Ii8+JiN4YTsJCTwvZz4mI3hhOwkJPGcgaWQ9InNoYXBlNzA3MS0xMiIgdHJhbnNmb3JtPSJ0cmFuc2xhdGUoNC44NjI3OSwtMjMuNzQyKSI+JiN4YTsJCQk8dGl0bGUgaWQ9InRpdGxlMzExNjU4Ij5TaGVldC43MDcxPC90aXRsZT4mI3hhOwkJCTxwYXRoIGlkPSJwYXRoMzExNjYwIiBpbmtzY2FwZTpjb25uZWN0b3ItY3VydmF0dXJlPSIwIiBzdHlsZT0iZmlsbDojRTZFN0U4OyIgZD0iTTcuNTgsNDguMDdIMC4zNmwtMC4xMy04Ljg4TDAsMzQuNTRsNi44OS0wLjQ4ICAgICBMNy41OCw0OC4wN3oiLz4mI3hhOwkJPC9nPiYjeGE7CQk8ZyBpZD0ic2hhcGU3MDcyLTE0IiB0cmFuc2Zvcm09InRyYW5zbGF0ZSg0Ljg2Mjc5LC0zNS44MDc2KSI+JiN4YTsJCQk8dGl0bGUgaWQ9InRpdGxlMzExNjYzIj5TaGVldC43MDcyPC90aXRsZT4mI3hhOwkJCTxwYXRoIGlkPSJwYXRoMzExNjY1IiBpbmtzY2FwZTpjb25uZWN0b3ItY3VydmF0dXJlPSIwIiBzdHlsZT0iZmlsbDojRTZFN0U4OyIgZD0iTTAuNjYsNDguMDdMMCw0NS4ybDQuNjQtMS4wMmwwLjYxLDIuODQgICAgIEwwLjY2LDQ4LjA3eiIvPiYjeGE7CQk8L2c+JiN4YTsJCTxnIGlkPSJzaGFwZTcwNzMtMTYiIHRyYW5zZm9ybT0idHJhbnNsYXRlKDkuOTE4MTgsLTIzLjc0MikiPiYjeGE7CQkJPHRpdGxlIGlkPSJ0aXRsZTMxMTY2OCI+U2hlZXQuNzA3MzwvdGl0bGU+JiN4YTsJCQk8cGF0aCBpZD0icGF0aDMxMTY3MCIgaW5rc2NhcGU6Y29ubmVjdG9yLWN1cnZhdHVyZT0iMCIgc3R5bGU9ImZpbGw6I0U2RTdFODsiIGQ9Ik0wLDQ4LjA3aDQuNjdsMC4xNy04Ljg0bDAuMjItNC42M0wwLDM0LjI1ICAgICBWNDguMDd6Ii8+JiN4YTsJCTwvZz4mI3hhOwkJPGcgaWQ9InNoYXBlNzA3NC0xOCIgdHJhbnNmb3JtPSJ0cmFuc2xhdGUoOS41MjkzMSwtMzUuODA3NikiPiYjeGE7CQkJPHRpdGxlIGlkPSJ0aXRsZTMxMTY3MyI+U2hlZXQuNzA3NDwvdGl0bGU+JiN4YTsJCQk8cGF0aCBpZD0icGF0aDMxMTY3NSIgaW5rc2NhcGU6Y29ubmVjdG9yLWN1cnZhdHVyZT0iMCIgc3R5bGU9ImZpbGw6I0U2RTdFODsiIGQ9Ik01LjA2LDQ4LjA3bC01LjA2LTFsMC42LTIuODlsNS4wNCwxLjA0ICAgICBMNS4wNiw0OC4wN3oiLz4mI3hhOwkJPC9nPiYjeGE7CQk8ZyBpZD0ic2hhcGU3MDc1LTIwIiB0cmFuc2Zvcm09InRyYW5zbGF0ZSg3LjE5NjA1LC0zMi4zMDQ2KSI+JiN4YTsJCQk8dGl0bGUgaWQ9InRpdGxlMzExNjc4Ij5TaGVldC43MDc1PC90aXRsZT4mI3hhOwkJCTxwYXRoIGlkPSJwYXRoMzExNjgwIiBpbmtzY2FwZTpjb25uZWN0b3ItY3VydmF0dXJlPSIwIiBzdHlsZT0iZmlsbDojMDBCMjk0OyIgZD0iTTQuNDEsNDYuMDJjLTAuMTgsMC0wLjM2LDAuMDQtMC41MiwwLjE1ICAgICBjMC0wLjExLTAuMDQtMC4xOC0wLjA3LTAuMjZjLTAuMDgtMC4xOC0wLjA4LTAuMTgtMC4wOC0wLjE4Yy0wLjAzLTAuMTgtMC4xMS0wLjMzLTAuMTEtMC40YzAuMDgtMC4xNCwwLjA4LTAuMTQsMC4wOC0wLjE0ICAgICBjMC0wLjA0LDAtMC4wNC0wLjA0LTAuMDhjLTAuMTEtMC4xMi0wLjExLTAuMTItMC4xMS0wLjEyYzAtMC4wNC0wLjA0LTAuMDQtMC4wNC0wLjA0Yy0wLjQxLDAtMC40MSwwLTAuNDEsMCAgICAgYy0wLjA0LDAtMC4wNywwLjA0LTAuMDcsMC4wOGMwLDAuMDUsMC4wMywwLjA4LDAuMDcsMC4wOGMwLjM4LDAsMC4zOCwwLDAuMzgsMGMwLjA3LDAuMDgsMC4wNywwLjA4LDAuMDcsMC4wOCAgICAgYy0wLjA3LDAuMTQtMC4wNywwLjE0LTAuMDcsMC4xNHMwLDAsMCwwLjA0YzAuMDMsMCwwLjA3LDAuMTQsMC4xNCwwLjMzYy0xLjUyLDAtMS41MiwwLTEuNTIsMGMtMC4wMy0wLjExLTAuMDMtMC4xMS0wLjAzLTAuMTEgICAgIGMwLjE0LTAuMDQsMC4zNC0wLjExLDAuNDEtMC4yMmMtMC45MywwLTAuOTMsMC0wLjkzLDBjMCwwLjE0LDAuMTUsMC4yNSwwLjM0LDAuMjVjMC4wMywwLDAuMDMsMCwwLjA3LDBsMCwwICAgICBjMC4wNCwwLjE1LDAuMDQsMC4xNSwwLjA0LDAuMTVjLTAuMzcsMC40NC0wLjM3LDAuNDQtMC4zNywwLjQ0Yy0wLjE5LTAuMTEtMC4zOC0wLjE5LTAuNTktMC4xOUMwLjQ5LDQ2LjAyLDAsNDYuNDYsMCw0Ny4wNSAgICAgYzAsMC41NCwwLjQ5LDEuMDIsMS4wNSwxLjAyYzAuNDcsMCwwLjg4LTAuMzMsMC45OS0wLjc3YzAuMjIsMC4wNCwwLjIyLDAuMDQsMC4yMiwwLjA0YzAsMC4wNywwLjA3LDAuMTgsMC4xNiwwLjIyICAgICBjLTAuMDQsMC4yMi0wLjA0LDAuMjItMC4wNCwwLjIyYy0wLjEyLDAtMC4xMiwwLTAuMTIsMGMtMC4wNCwwLTAuMDcsMC0wLjA3LDAuMDNjMCwwLjA0LDAuMDMsMC4wOCwwLjA3LDAuMDhjMC4zLDAsMC4zLDAsMC4zLDAgICAgIGMwLjA0LDAsMC4wNC0wLjA0LDAuMDQtMC4wOGMwLTAuMDMsMC0wLjAzLTAuMDQtMC4wM2MtMC4wNywwLTAuMDcsMC0wLjA3LDBjMC4wNC0wLjIyLDAuMDQtMC4yMiwwLjA0LTAuMjIgICAgIGMwLjE0LDAsMC4yNS0wLjExLDAuMjUtMC4yNmMwLTAuMDMtMC4wMy0wLjA3LTAuMDctMC4xMWMxLjAzLTEuMTMsMS4wMy0xLjEzLDEuMDMtMS4xM2MwLjA0LDAuMDQsMC4wNCwwLjExLDAuMDgsMC4xNSAgICAgYy0wLjI2LDAuMjItMC40NCwwLjQ3LTAuNDQsMC44NGMwLDAuNTQsMC40NCwxLjAyLDEuMDMsMS4wMmMwLjYsMCwxLjAzLTAuNDgsMS4wMy0xLjAyQzUuNDQsNDYuNDYsNS4wMSw0Ni4wMiw0LjQxLDQ2LjAyeiAgICAgIE0xLjA1LDQ3LjkyYy0wLjQ5LDAtMC44OS0wLjQtMC44OS0wLjg3YzAtMC40OCwwLjQtMC44OCwwLjg5LTAuODhjMC4xOCwwLDAuMzIsMC4wNywwLjQ3LDAuMTVjLTAuNDcsMC42Mi0wLjQ3LDAuNjItMC40NywwLjYyICAgICBsMCwwYy0wLjA0LDAtMC4xMSwwLjAzLTAuMTEsMC4xMWgwLjAzYy0wLjAzLDAuMDMtMC4wMywwLjAzLTAuMDMsMC4wM2MwLjA3LDAsMC4wNywwLDAuMDcsMGMwLDAuMDQsMCwwLjA4LDAuMDQsMC4wOCAgICAgYzAuMDMsMCwwLjAzLTAuMDQsMC4wMy0wLjA0YzAuODIsMC4xNSwwLjgyLDAuMTUsMC44MiwwLjE1QzEuNzksNDcuNjMsMS40NSw0Ny45MiwxLjA1LDQ3LjkyeiBNMS45Myw0Ny4wNWMwLDAuMDMsMCwwLjA3LDAsMC4xMSAgICAgYy0wLjc4LTAuMTUtMC43OC0wLjE1LTAuNzgtMC4xNWMwLjQ5LTAuNjIsMC40OS0wLjYyLDAuNDktMC42MkMxLjgyLDQ2LjU3LDEuOTMsNDYuNzksMS45Myw0Ny4wNXogTTEuNzUsNDYuMjggICAgIGMwLjI5LTAuNCwwLjI5LTAuNCwwLjI5LTAuNGMwLjM4LDEuMjQsMC4zOCwxLjI0LDAuMzgsMS4yNGMtMC4wOSwwLjA0LTAuMDksMC4wNC0wLjEyLDAuMTFjLTAuMjItMC4wNy0wLjIyLTAuMDctMC4yMi0wLjA3ICAgICBjMC0wLjA0LDAtMC4wOCwwLTAuMTFDMi4wOCw0Ni43MiwxLjk3LDQ2LjQ2LDEuNzUsNDYuMjh6IE0yLjY3LDQ3LjA1YzAuMDgtMC4yMiwwLjA4LTAuMjIsMC4wOC0wLjIyYzAuMDcsMCwwLjA3LDAsMC4wNywwICAgICBjMC4wNCwwLDAuMDctMC4wNCwwLjA3LTAuMDRjMC0wLjA0LTAuMDMtMC4wNy0wLjA3LTAuMDdjLTAuMjYsMC0wLjI2LDAtMC4yNiwwYy0wLjAzLDAtMC4wNywwLjAzLTAuMDcsMC4wNyAgICAgYzAsMCwwLjA0LDAuMDQsMC4wNywwLjA0YzAuMDQsMCwwLjA0LDAsMC4wNCwwYy0wLjA0LDAuMjUtMC4wNCwwLjI1LTAuMDQsMC4yNWMtMC4wMywwLTAuMDMsMC0wLjAzLDBsMCwwICAgICBjLTAuMzgtMS4yNy0wLjM4LTEuMjctMC4zOC0xLjI3YzEuNTIsMCwxLjUyLDAsMS41MiwwYzAsMC4wMywwLDAuMDcsMC4wNCwwLjFMMi42Nyw0Ny4wNXogTTQuNDEsNDcuOTIgICAgIGMtMC40NywwLTAuODktMC40LTAuODktMC44N2MwLTAuMywwLjE1LTAuNTEsMC4zMy0wLjY2YzAuMDQsMC4wNywwLjA5LDAuMTUsMC4wOSwwLjIyYzAuMTEsMC4xOCwwLjI5LDAuMzMsMC4zNiwwLjQ0bDAsMCAgICAgYzAsMC4wMywwLjA0LDAuMTEsMC4xMSwwLjExczAuMTEtMC4wOCwwLjExLTAuMTFjMC0wLjA4LTAuMDQtMC4xMS0wLjExLTAuMTFsMCwwYy0wLjExLTAuMDgtMC4yOS0wLjIyLTAuMzYtMC40ICAgICBjMC0wLjA0LTAuMDQtMC4xMS0wLjA4LTAuMjJjMC4xMS0wLjA4LDAuMjYtMC4xNSwwLjQ0LTAuMTVjMC40OSwwLDAuODksMC40LDAuODksMC44OEM1LjMsNDcuNTIsNC45LDQ3LjkyLDQuNDEsNDcuOTJ6Ii8+JiN4YTsJCTwvZz4mI3hhOwkJPGcgaWQ9InNoYXBlNzA3Ni0yMiIgdHJhbnNmb3JtPSJ0cmFuc2xhdGUoOS45MTgxOCwtMzguMzM3NCkiPiYjeGE7CQkJPHRpdGxlIGlkPSJ0aXRsZTMxMTY4MyI+U2hlZXQuNzA3NjwvdGl0bGU+JiN4YTsJCQk8cGF0aCBpZD0icGF0aDMxMTY4NSIgaW5rc2NhcGU6Y29ubmVjdG9yLWN1cnZhdHVyZT0iMCIgc3R5bGU9ImZpbGw6I0YyN0FCNDsiIGQ9Ik0wLjE5LDQ3Ljg3YzAsMC4xNC0wLjA5LDAuMi0wLjE0LDAuMiAgICAgYzAsMCwwLDAtMC4wNS0wLjA2QzAuMTksNDcuODcsMC4xOSw0Ny44NywwLjE5LDQ3Ljg3TDAuMTksNDcuODd6Ii8+JiN4YTsJCTwvZz4mI3hhOwkJPGcgaWQ9InNoYXBlNzA3Ny0yNCIgdHJhbnNmb3JtPSJ0cmFuc2xhdGUoOC4xNjgyNCwtMzcuNzUzNikiPiYjeGE7CQkJPHRpdGxlIGlkPSJ0aXRsZTMxMTY4OCI+U2hlZXQuNzA3NzwvdGl0bGU+JiN4YTsJCQk8cGF0aCBpZD0icGF0aDMxMTY5MCIgaW5rc2NhcGU6Y29ubmVjdG9yLWN1cnZhdHVyZT0iMCIgc3R5bGU9ImZpbGw6I0NFOUM1RTsiIGQ9Ik0xLjg1LDQ4LjA3QzAuODQsNDguMDcsMCw0Ny4zOSwwLDQ2LjMzICAgICBjMC0xLjM4LDAtMS4zOCwwLTEuMzhjMy42OSwwLDMuNjksMCwzLjY5LDBjMCwxLjM4LDAsMS4zOCwwLDEuMzhDMy42OSw0Ny4zOSwyLjg3LDQ4LjA3LDEuODUsNDguMDd6Ii8+JiN4YTsJCTwvZz4mI3hhOwkJPGcgaWQ9InNoYXBlNzA3OC0yNiIgdHJhbnNmb3JtPSJ0cmFuc2xhdGUoNy4wMDE2MSwtMzkuNjk5NykiPiYjeGE7CQkJPHRpdGxlIGlkPSJ0aXRsZTMxMTY5MyI+U2hlZXQuNzA3ODwvdGl0bGU+JiN4YTsJCQk8cGF0aCBpZD0icGF0aDMxMTY5NSIgaW5rc2NhcGU6Y29ubmVjdG9yLWN1cnZhdHVyZT0iMCIgc3R5bGU9ImZpbGw6I0NFOUM1RTsiIGQ9Ik01LjgzLDQ0LjE0YzAsMi4zMy0xLjI2LDMuOTMtMi45MywzLjkzICAgICBjLTEuNjYsMC0yLjktMS42LTIuOS0zLjkzYzAtMi4zNSwxLjI0LTQuMjUsMi45LTQuMjVDNS4wMSwzOS44OSw1LjgzLDQxLjc5LDUuODMsNDQuMTR6Ii8+JiN4YTsJCTwvZz4mI3hhOwkJPGcgaWQ9InNoYXBlNzA3OS0yOCIgdHJhbnNmb3JtPSJ0cmFuc2xhdGUoNi42MTI3MywtNDIuNDI0MikiPiYjeGE7CQkJPHRpdGxlIGlkPSJ0aXRsZTMxMTY5OCI+U2hlZXQuNzA3OTwvdGl0bGU+JiN4YTsJCQk8cGF0aCBpZD0icGF0aDMxMTcwMCIgaW5rc2NhcGU6Y29ubmVjdG9yLWN1cnZhdHVyZT0iMCIgc3R5bGU9ImZpbGw6I0NFOUM1RTsiIGQ9Ik0wLjU4LDQ2LjMyYy0wLjMyLDAtMC4zMiwwLTAuMzIsMCAgICAgQzAuMSw0Ni4zMiwwLDQ2LjQ2LDAsNDYuNjNjMCwxLjEzLDAsMS4xMywwLDEuMTNjMCwwLjE3LDAuMSwwLjMxLDAuMjYsMC4zMWMwLjIsMCwwLjIsMCwwLjIsMEwwLjU4LDQ2LjMyeiIvPiYjeGE7CQk8L2c+JiN4YTsJCTxnIGlkPSJzaGFwZTcwODAtMzAiIHRyYW5zZm9ybT0idHJhbnNsYXRlKDEyLjY0MDMsLTQyLjQyNDIpIj4mI3hhOwkJCTx0aXRsZSBpZD0idGl0bGUzMTE3MDMiPlNoZWV0LjcwODA8L3RpdGxlPiYjeGE7CQkJPHBhdGggaWQ9InBhdGgzMTE3MDUiIGlua3NjYXBlOmNvbm5lY3Rvci1jdXJ2YXR1cmU9IjAiIHN0eWxlPSJmaWxsOiNDRTlDNUU7IiBkPSJNMCw0Ni4zMmMwLjQ2LDAsMC40NiwwLDAuNDYsMCAgICAgYzAuMiwwLDAuMzIsMC4xNCwwLjMyLDAuMzFjMCwxLjEzLDAsMS4xMywwLDEuMTNjMCwwLjE3LTAuMTIsMC4zMS0wLjMyLDAuMzFjLTAuMjksMC0wLjI5LDAtMC4yOSwwTDAsNDYuMzJ6Ii8+JiN4YTsJCTwvZz4mI3hhOwkJPGcgaWQ9InNoYXBlNzA4MS0zMiIgdHJhbnNmb3JtPSJ0cmFuc2xhdGUoOC41NTcxMSwtNDMuNTkxOCkiPiYjeGE7CQkJPHRpdGxlIGlkPSJ0aXRsZTMxMTcwOCI+U2hlZXQuNzA4MTwvdGl0bGU+JiN4YTsJCQk8cGF0aCBpZD0icGF0aDMxMTcxMCIgaW5rc2NhcGU6Y29ubmVjdG9yLWN1cnZhdHVyZT0iMCIgc3R5bGU9ImZpbGw6IzIzMUYyMDsiIGQ9Ik0wLjE5LDQ4LjA3YzAuMSwwLDAuMi0wLjA5LDAuMi0wLjIxICAgICBjMC0wLjA4LTAuMS0wLjE4LTAuMi0wLjE4QzAuMDcsNDcuNjgsMCw0Ny43OCwwLDQ3LjlDMCw0Ny45OCwwLjEsNDguMDcsMC4xOSw0OC4wN3oiLz4mI3hhOwkJPC9nPiYjeGE7CQk8ZyBpZD0ic2hhcGU3MDgyLTM0IiB0cmFuc2Zvcm09InRyYW5zbGF0ZSgxMS4wODQ4LC00My4zOTcyKSI+JiN4YTsJCQk8dGl0bGUgaWQ9InRpdGxlMzExNzEzIj5TaGVldC43MDgyPC90aXRsZT4mI3hhOwkJCTxwYXRoIGlkPSJwYXRoMzExNzE1IiBpbmtzY2FwZTpjb25uZWN0b3ItY3VydmF0dXJlPSIwIiBzdHlsZT0iZmlsbDojMjMxRjIwOyIgZD0iTTAuMTksNDguMDdjMC4xLDAsMC4yLTAuMTQsMC4yLTAuMzEgICAgIGMwLTAuMTMtMC4xLTAuMjgtMC4yLTAuMjhDMC4xLDQ3LjQ4LDAsNDcuNjMsMCw0Ny44QzAsNDcuOTMsMC4xLDQ4LjA3LDAuMTksNDguMDd6Ii8+JiN4YTsJCTwvZz4mI3hhOwkJPGcgaWQ9InNoYXBlNzA4My0zNiIgdHJhbnNmb3JtPSJ0cmFuc2xhdGUoOC4xNjgyNCwtMzkuNTA1MSkiPiYjeGE7CQkJPHRpdGxlIGlkPSJ0aXRsZTMxMTcxOCI+U2hlZXQuNzA4MzwvdGl0bGU+JiN4YTsJCQk8cGF0aCBpZD0icGF0aDMxMTcyMCIgaW5rc2NhcGU6Y29ubmVjdG9yLWN1cnZhdHVyZT0iMCIgc3R5bGU9ImZpbGw6I0NFOUM1RTsiIGQ9Ik0wLDQ2LjcxYzMuNSwwLDMuNSwwLDMuNSwwICAgICBjLTAuNDQsMC44My0xLjAzLDEuMzYtMS43NSwxLjM2QzEuMDUsNDguMDcsMC40NSw0Ny41NCwwLDQ2LjcxeiIvPiYjeGE7CQk8L2c+JiN4YTsJCTxnIGlkPSJzaGFwZTcwODQtMzgiIHRyYW5zZm9ybT0idHJhbnNsYXRlKDguMTY4MjQsLTM5LjMxMDUpIj4mI3hhOwkJCTx0aXRsZSBpZD0idGl0bGUzMTE3MjMiPlNoZWV0LjcwODQ8L3RpdGxlPiYjeGE7CQkJPHBhdGggaWQ9InBhdGgzMTE3MjUiIGlua3NjYXBlOmNvbm5lY3Rvci1jdXJ2YXR1cmU9IjAiIHN0eWxlPSJmaWxsOiNCQThENTc7IiBkPSJNMy42OSw0Ni45YzAsMC4yOSwwLDAuMjksMCwwLjI5ICAgICBjMCwwLjI4LTEuMTksMC44OC0xLjg0LDAuODhDMS4yNCw0OC4wNywwLDQ3LjYyLDAsNDcuMTljMC0wLjI5LDAtMC4yOSwwLTAuMjljMC4yNiwwLjI2LDAuNTUsMC40NiwwLjg3LDAuNjEgICAgIGMwLjMsMC4yNCwwLjYyLDAuMzUsMC45OCwwLjM1czAuNjktMC4xMSwwLjk4LTAuMzVDMy4xNiw0Ny4zNiwzLjQ1LDQ3LjE2LDMuNjksNDYuOXoiLz4mI3hhOwkJPC9nPiYjeGE7CQk8ZyBpZD0ic2hhcGU3MDg1LTQwIiB0cmFuc2Zvcm09InRyYW5zbGF0ZSg4Ljc1MTU1LC00MS4wNjE5KSI+JiN4YTsJCQk8dGl0bGUgaWQ9InRpdGxlMzExNzI4Ij5TaGVldC43MDg1PC90aXRsZT4mI3hhOwkJCTxwYXRoIGlkPSJwYXRoMzExNzMwIiBpbmtzY2FwZTpjb25uZWN0b3ItY3VydmF0dXJlPSIwIiBzdHlsZT0iZmlsbDojRkZGRkZGOyIgZD0iTTEuMTcsNDguMDdjMC41NCwwLDAuOC0wLjEyLDEuMTYtMC4yICAgICBjLTAuMTgsMC4wNC0wLjYyLDAuMDgtMS4xNiwwLjA4Yy0wLjU5LDAtMC45OS0wLjA0LTEuMTctMC4wOEMwLjM2LDQ3Ljk1LDAuNjIsNDguMDcsMS4xNyw0OC4wN3oiLz4mI3hhOwkJPC9nPiYjeGE7CQk8ZyBpZD0ic2hhcGU3MDg2LTQyIiB0cmFuc2Zvcm09InRyYW5zbGF0ZSg4Ljc1MTU1LC00MC44NjczKSI+JiN4YTsJCQk8dGl0bGUgaWQ9InRpdGxlMzExNzMzIj5TaGVldC43MDg2PC90aXRsZT4mI3hhOwkJCTxwYXRoIGlkPSJwYXRoMzExNzM1IiBpbmtzY2FwZTpjb25uZWN0b3ItY3VydmF0dXJlPSIwIiBzdHlsZT0iZmlsbDojQkIxNDFBOyIgZD0iTTEuMjksNDguMDdjLTAuMzgsMC0wLjYxLTAuMS0wLjg2LTAuMTUgICAgIGMtMC4wOS0wLjA1LTAuMi0wLjEtMC4zMS0wLjE0Yy0wLjAzLDAtMC4wMywwLTAuMDcsMEwwLDQ3LjczYzAuMDUtMC4wNSwwLjA1LTAuMDUsMC4wOS0wLjA1YzAsMCwwLjAzLDAsMC4wNywwICAgICBjMC4xOCwwLjA1LDAuNjEsMC4xLDEuMTMsMC4xYzAuNDgsMCwwLjkxLTAuMDUsMS4xMy0wLjFjMC4wMywwLDAuMDMsMCwwLjA3LDBzMC4wNCwwLDAuMDQsMC4wNWMwLDAsMCwwLjA1LTAuMDQsMC4wNSAgICAgYzAsMC0wLjA0LDAtMC4wNywwYy0wLjA3LDAuMDQtMC4xOCwwLjA5LTAuMzEsMC4xNEMxLjksNDcuOTcsMS42Myw0OC4wNywxLjI5LDQ4LjA3eiBNMC42MSw0Ny44N2MwLjE5LDAuMDUsMC40MSwwLjEsMC42OCwwLjEgICAgIHMwLjQ4LTAuMDUsMC42OC0wLjFjLTAuMjMsMC0wLjQ1LDAtMC42OCwwQzEuMDIsNDcuODcsMC44LDQ3Ljg3LDAuNjEsNDcuODd6Ii8+JiN4YTsJCTwvZz4mI3hhOwkJPGcgaWQ9InNoYXBlNzA4Ny00NCIgdHJhbnNmb3JtPSJ0cmFuc2xhdGUoOS4zMzQ4NywtNDEuODQwNCkiPiYjeGE7CQkJPHRpdGxlIGlkPSJ0aXRsZTMxMTczOCI+U2hlZXQuNzA4NzwvdGl0bGU+JiN4YTsJCQk8cGF0aCBpZD0icGF0aDMxMTc0MCIgaW5rc2NhcGU6Y29ubmVjdG9yLWN1cnZhdHVyZT0iMCIgc3R5bGU9ImZpbGw6I0JBOEQ1NzsiIGQ9Ik0xLjE3LDQ3LjQ4YzAsMC4xNS0wLjEsMC4zLTAuMjEsMC4yNSAgICAgYy0wLjA0LDAtMC4wNywwLjA5LTAuMTUsMC4xNGMtMC4wNiwwLjEtMC4xMywwLjItMC4yNCwwLjJjLTAuMDcsMC0wLjE4LTAuMS0wLjI0LTAuMmMtMC4wNy0wLjA1LTAuMTEtMC4xNC0wLjExLTAuMTQgICAgIEMwLjA3LDQ3Ljc4LDAsNDcuNjMsMCw0Ny40OGwwLDBDMS4xNyw0Ny40OCwxLjE3LDQ3LjQ4LDEuMTcsNDcuNDhMMS4xNyw0Ny40OHoiLz4mI3hhOwkJPC9nPiYjeGE7CQk8ZyBpZD0ic2hhcGU3MDg4LTQ2IiB0cmFuc2Zvcm09InRyYW5zbGF0ZSg3LjAwMTYxLC00Mi44MTM0KSI+JiN4YTsJCQk8dGl0bGUgaWQ9InRpdGxlMzExNzQzIj5TaGVldC43MDg4PC90aXRsZT4mI3hhOwkJCTxwYXRoIGlkPSJwYXRoMzExNzQ1IiBpbmtzY2FwZTpjb25uZWN0b3ItY3VydmF0dXJlPSIwIiBzdHlsZT0iZmlsbDojRkZCOTAwOyIgZD0iTTYuMDMsNDUuNTRjMCwyLjUzLDAsMi41MywwLDIuNTMgICAgIGMtMC4yNiwwLTAuMjYsMC0wLjI2LDBjLTAuMTQtMy4wNC0wLjE0LTMuMDQtMC4xNC0zLjA0QzQuOCw0NS4xNyw0LjgsNDUuMTcsNC44LDQ1LjE3Yy0xLjE5LDAuMTUtMi4zOCwwLjE1LTMuNTYsMCAgICAgYy0wLjgzLTAuMTQtMC44My0wLjE0LTAuODMtMC4xNGMtMC4xOCwzLTAuMTgsMy0wLjE4LDNjLTAuMjMsMC0wLjIzLDAtMC4yMywwYzAtMi40OSwwLTIuNDksMC0yLjQ5YzAtMS41MSwxLjA1LTIuNzMsMi4zMS0yLjczICAgICBjMS4zOCwwLDEuMzgsMCwxLjM4LDBDNC45OSw0Mi44MSw2LjAzLDQ0LjAzLDYuMDMsNDUuNTR6Ii8+JiN4YTsJCTwvZz4mI3hhOwkJPGcgaWQ9InNoYXBlNzA4OS00OCIgdHJhbnNmb3JtPSJ0cmFuc2xhdGUoMTAuODkwNCwtNDQuMTc1NikiPiYjeGE7CQkJPHRpdGxlIGlkPSJ0aXRsZTMxMTc0OCI+U2hlZXQuNzA4OTwvdGl0bGU+JiN4YTsJCQk8cGF0aCBpZD0icGF0aDMxMTc1MCIgaW5rc2NhcGU6Y29ubmVjdG9yLWN1cnZhdHVyZT0iMCIgc3R5bGU9ImZpbGw6I0ZGQjkwMDsiIGQ9Ik0wLjk3LDQ4LjA3YzAsMC0wLjA2LTAuMDMtMC4xNi0wLjEgICAgIGMtMC4wMywwLTAuMDYtMC4wMi0wLjEzLTAuMDZjLTAuMDItMC4wNC0wLjA2LTAuMDQtMC4wNi0wLjA0cy0wLjA0LTAuMDItMC4wNi0wLjAyYzAsMCwwLDAtMC4wNCwwYy0wLjEzLTAuMDQtMC4yNSwwLTAuMzUsMCAgICAgYy0wLjA0LDAtMC4wNywwLTAuMSwwcy0wLjA3LDAtMC4wNywwbDAsMGMwLTAuMDQsMC0wLjA0LDAtMC4wNHMwLjA3LTAuMDMsMC4xNy0wLjA2YzAuMS0wLjAzLDAuMjItMC4wNywwLjM5LTAuMDMgICAgIGMwLDAsMC4wMiwwLDAuMDYsMGMwLDAsMCwwLDAuMDQsMC4wM2MwLjAyLDAsMC4wNiwwLjAzLDAuMDksMC4wM2MwLjA2LDAuMDcsMC4xLDAuMDksMC4xMiwwLjEzYzAuMDQsMC4wNCwwLjA4LDAuMSwwLjEsMC4xICAgICBDMC45Nyw0OC4wNCwwLjk3LDQ4LjA3LDAuOTcsNDguMDdMMC45Nyw0OC4wN0MwLjk3LDQ4LjA3LDAuOTcsNDguMDcsMC45Nyw0OC4wN3oiLz4mI3hhOwkJPC9nPiYjeGE7CQk8ZyBpZD0ic2hhcGU3MDkwLTUwIiB0cmFuc2Zvcm09InRyYW5zbGF0ZSg4LjE2ODI0LC00NC4xODE3KSI+JiN4YTsJCQk8dGl0bGUgaWQ9InRpdGxlMzExNzUzIj5TaGVldC43MDkwPC90aXRsZT4mI3hhOwkJCTxwYXRoIGlkPSJwYXRoMzExNzU1IiBpbmtzY2FwZTpjb25uZWN0b3ItY3VydmF0dXJlPSIwIiBzdHlsZT0iZmlsbDojRkZCOTAwOyIgZD0iTTAuOTUsNDcuODVjMCwwLTAuMDYsMC0wLjE2LTAuMDMgICAgIGMtMC4wNCwwLTAuMSwwLTAuMTYsMGMtMC4wMiwwLTAuMDYsMC0wLjEsMEgwLjUxSDAuNDdjLTAuMTIsMC4wMy0wLjIxLDAuMS0wLjMxLDAuMTZjLTAuMDMsMC4wMy0wLjA2LDAuMDMtMC4wOSwwLjA3ICAgICBjLTAuMDMsMC0wLjAzLDAtMC4wMywwYzAsMC4wMi0wLjA0LDAuMDItMC4wNCwwbDAsMGMwLDAsMC4wNC0wLjA3LDAuMS0wLjEzYzAuMDktMC4xLDAuMTktMC4xNiwwLjM1LTAuMjRoMC4wMiAgICAgYzAuMDQsMCwwLjA0LDAsMC4wNiwwYzAuMDQsMCwwLjEsMCwwLjE0LDBjMC4wNiwwLDAuMDgsMC4wNCwwLjE2LDAuMDRjMC4wMiwwLjA0LDAuMDgsMC4wNiwwLjA4LDAuMDYgICAgIGMwLjA0LDAuMDQsMC4wNiwwLjA0LDAuMDYsMC4wNHMwLDAsMCwwLjAzQzAuOTcsNDcuODUsMC45NSw0Ny44NSwwLjk1LDQ3Ljg1eiIvPiYjeGE7CQk8L2c+JiN4YTsJCTxnIGlkPSJzaGFwZTcwOTEtNTIiIHRyYW5zZm9ybT0idHJhbnNsYXRlKDkuMzM0ODcsLTQyLjQyNDIpIj4mI3hhOwkJCTx0aXRsZSBpZD0idGl0bGUzMTE3NTgiPlNoZWV0LjcwOTE8L3RpdGxlPiYjeGE7CQkJPHBhdGggaWQ9InBhdGgzMTE3NjAiIGlua3NjYXBlOmNvbm5lY3Rvci1jdXJ2YXR1cmU9IjAiIHN0eWxlPSJmaWxsOiNEOUIwN0Y7IiBkPSJNMC43OCw0Ni4zMmMwLDEuNzUsMCwxLjc1LDAsMS43NSAgICAgYy0wLjc4LDAtMC43OCwwLTAuNzgsMGMwLTAuMDQsMC4wNS0wLjExLDAuMS0wLjE1YzAuMTMtMC4xMSwwLjIzLTAuMywwLjI4LTAuNTNjMC4wMy0wLjc2LDAuMDMtMC43NiwwLjAzLTAuNzYgICAgIEMwLjQxLDQ2LjQsMC42OSw0Ni4zMiwwLjc4LDQ2LjMyeiIvPiYjeGE7CQk8L2c+JiN4YTsJCTxnIGlkPSJzaGFwZTcwOTItNTQiIHRyYW5zZm9ybT0idHJhbnNsYXRlKDIuMzM1MSwtMjQuNTIwNCkiPiYjeGE7CQkJPHRpdGxlIGlkPSJ0aXRsZTMxMTc2MyI+U2hlZXQuNzA5MjwvdGl0bGU+JiN4YTsJCQk8cGF0aCBpZD0icGF0aDMxMTc2NSIgaW5rc2NhcGU6Y29ubmVjdG9yLWN1cnZhdHVyZT0iMCIgc3R5bGU9ImZpbGw6I0U2MUUyNzsiIGQ9Ik00LjA2LDQ4LjA3bDYuMDUtNS45bC00LjEyLTQuMjJMMCw0My44OCAgICAgTDQuMDYsNDguMDd6Ii8+JiN4YTsJCTwvZz4mI3hhOwkJPGcgaWQ9InNoYXBlNzA5My01NiIgdHJhbnNmb3JtPSJ0cmFuc2xhdGUoMi4zMzUxLC0yNC41MjA0KSI+JiN4YTsJCQk8dGl0bGUgaWQ9InRpdGxlMzExNzY4Ij5TaGVldC43MDkzPC90aXRsZT4mI3hhOwkJCTxwYXRoIGlkPSJwYXRoMzExNzcwIiBpbmtzY2FwZTpjb25uZWN0b3ItY3VydmF0dXJlPSIwIiBzdHlsZT0iZmlsbDojRUQ0RTVBOyIgZD0iTTQuMDYsNDguMDdsNi4wNS01Ljg0TDAsNDMuOTNMNC4wNiw0OC4wN3oiLz4mI3hhOwkJPC9nPiYjeGE7CQk8ZyBpZD0ic2hhcGU3MDk0LTU4IiB0cmFuc2Zvcm09InRyYW5zbGF0ZSgwLjM5MDcxNSwtMzAuOTQyNCkiPiYjeGE7CQkJPHRpdGxlIGlkPSJ0aXRsZTMxMTc3MyI+U2hlZXQuNzA5NDwvdGl0bGU+JiN4YTsJCQk8cGF0aCBpZD0icGF0aDMxMTc3NSIgaW5rc2NhcGU6Y29ubmVjdG9yLWN1cnZhdHVyZT0iMCIgc3R5bGU9ImZpbGw6I0NFOUM1RTsiIGQ9Ik0wLDQ2LjRsMi4zNiwxLjY3bDQuMDYtNC42NGwtMy4yNC0yLjM3TDAsNDYuNCAgICAgeiIvPiYjeGE7CQk8L2c+JiN4YTsJCTxnIGlkPSJzaGFwZTcwOTUtNjAiIHRyYW5zZm9ybT0idHJhbnNsYXRlKDMuMTgyNzQsLTM0LjcxNzQpIj4mI3hhOwkJCTx0aXRsZSBpZD0idGl0bGUzMTE3NzgiPlNoZWV0LjcwOTU8L3RpdGxlPiYjeGE7CQkJPHBhdGggaWQ9InBhdGgzMTE3ODAiIGlua3NjYXBlOmNvbm5lY3Rvci1jdXJ2YXR1cmU9IjAiIHN0eWxlPSJmaWxsOiNFNkU3RTg7IiBkPSJNMC4zOCw0NC45NWMwLjYzLTAuODYsMS44Ni0xLjA5LDIuNzYtMC40MiAgICAgYzAuODksMC42NCwxLjA3LDEuODUsMC40NCwyLjc0Yy0wLjY3LDAuODUtMS44NiwxLjA3LTIuNzYsMC40NUMtMC4wNyw0Ny4wOS0wLjI2LDQ1Ljg3LDAuMzgsNDQuOTV6Ii8+JiN4YTsJCTwvZz4mI3hhOwkJPGcgaWQ9InNoYXBlNzA5Ni02MiIgdHJhbnNmb3JtPSJ0cmFuc2xhdGUoNS40NDYxMSwtMjYuNTQzMikiPiYjeGE7CQkJPHRpdGxlIGlkPSJ0aXRsZTMxMTc4MyI+U2hlZXQuNzA5NjwvdGl0bGU+JiN4YTsJCQk8cGF0aCBpZD0icGF0aDMxMTc4NSIgaW5rc2NhcGU6Y29ubmVjdG9yLWN1cnZhdHVyZT0iMCIgc3R5bGU9ImZpbGw6I0NEOUI1RTsiIGQ9Ik0xLjUzLDQ2Ljk1YzAuOTIsMC44NywxLjM3LDAuOTQsMi40MiwxLjA5ICAgICBjMC42MywwLjEsMC44NS0wLjA4LDAuNjMtMC4zYzAuNTUsMC4yNiwxLjExLTAuMTIsMC43MS0wLjNjMC4xNCwwLDAuNTEtMC4xMSwwLjUxLTAuMzRjMC4wMy0wLjE4LTAuMzctMC4yMi0wLjUxLTAuMjIgICAgIGMwLjE0LTAuMiwwLjExLTAuNDUtMC4zOC0wLjQ5Yy0wLjM4LTAuMDMtMC42LTAuMjMtMC42LTAuMjNjMC40NS0wLjExLDAuNi0wLjQxLDAuNDktMC41OWMtMC40OSwwLjAzLTEuMjMtMC4xNi0xLjgyLTAuMTEgICAgIGMtMC4xMSwwLTAuMjIsMC4wMy0wLjMzLDAuMDdjLTIuMzgtMS40Ny0yLjM4LTEuNDctMi4zOC0xLjQ3QzAsNDYuMTMsMCw0Ni4xMywwLDQ2LjEzTDEuNTMsNDYuOTV6Ii8+JiN4YTsJCTwvZz4mI3hhOwkJPGcgaWQ9InNoYXBlNzA5Ny02NCIgdHJhbnNmb3JtPSJ0cmFuc2xhdGUoMCwtMzAuMzY3MSkiPiYjeGE7CQkJPHRpdGxlIGlkPSJ0aXRsZTMxMTc4OCI+U2hlZXQuNzA5NzwvdGl0bGU+JiN4YTsJCQk8cGF0aCBpZD0icGF0aDMxMTc5MCIgaW5rc2NhcGU6Y29ubmVjdG9yLWN1cnZhdHVyZT0iMCIgc3R5bGU9ImZpbGw6I0NFOUM1RTsiIGQ9Ik0yLjI1LDQ1LjQyYzAuNjgsMC40MiwwLjg2LDEuMjgsMC40OSwxLjk5ICAgICBjLTAuNDIsMC42NC0xLjMzLDAuODYtMi4wMSwwLjQ1QzAsNDcuNDktMC4xOSw0Ni41OCwwLjIsNDUuOTFDMC42NSw0NS4xOSwxLjUyLDQ0Ljk2LDIuMjUsNDUuNDJ6Ii8+JiN4YTsJCTwvZz4mI3hhOwkJPGcgaWQ9InNoYXBlNzA5OC02NiIgdHJhbnNmb3JtPSJ0cmFuc2xhdGUoMC43Nzk1OTEsLTI3LjYzNDEpIj4mI3hhOwkJCTx0aXRsZSBpZD0idGl0bGUzMTE3OTMiPlNoZWV0LjcwOTg8L3RpdGxlPiYjeGE7CQkJPHBhdGggaWQ9InBhdGgzMTE3OTUiIGlua3NjYXBlOmNvbm5lY3Rvci1jdXJ2YXR1cmU9IjAiIHN0eWxlPSJmaWxsOiNDRTlDNUU7IiBkPSJNNi4yMiw0OC4wN2wwLjM5LTEuODNsLTUuMTMtMy40M0wwLDQ1LjE2ICAgICBMNi4yMiw0OC4wN3oiLz4mI3hhOwkJPC9nPiYjeGE7CQk8ZyBpZD0ic2hhcGU3MDk5LTY4IiB0cmFuc2Zvcm09InRyYW5zbGF0ZSgxLjE2ODQ3LC0zMi4zMDQ2KSI+JiN4YTsJCQk8dGl0bGUgaWQ9InRpdGxlMzExNzk4Ij5TaGVldC43MDk5PC90aXRsZT4mI3hhOwkJCTxwYXRoIGlkPSJwYXRoMzExODAwIiBpbmtzY2FwZTpjb25uZWN0b3ItY3VydmF0dXJlPSIwIiBzdHlsZT0iZmlsbDojRTZFN0U4OyIgZD0iTTAsNDUuOTVsMy4yMSwyLjEybDMuNC0zLjk4bC0yLjczLTEuNjdIMi40MiAgICAgTDAsNDUuOTV6Ii8+JiN4YTsJCTwvZz4mI3hhOwkJPGcgaWQ9InNoYXBlNzEwMC03MCIgdHJhbnNmb3JtPSJ0cmFuc2xhdGUoMTIuODM0OCwtMzEuMTM3KSI+JiN4YTsJCQk8dGl0bGUgaWQ9InRpdGxlMzExODAzIj5TaGVldC43MTAwPC90aXRsZT4mI3hhOwkJCTxwYXRoIGlkPSJwYXRoMzExODA1IiBpbmtzY2FwZTpjb25uZWN0b3ItY3VydmF0dXJlPSIwIiBzdHlsZT0iZmlsbDojQ0U5QzVFOyIgZD0iTTYuMjIsNDYuNzVsLTIuMzQsMS4zMkwwLDQzLjU0bDMuMTEtMi4yOCAgICAgTDYuMjIsNDYuNzV6Ii8+JiN4YTsJCTwvZz4mI3hhOwkJPGcgaWQ9InNoYXBlNzEwMS03MiIgdHJhbnNmb3JtPSJ0cmFuc2xhdGUoMTIuMzI5MSwtMzQuOTA3NSkiPiYjeGE7CQkJPHRpdGxlIGlkPSJ0aXRsZTMxMTgwOCI+U2hlZXQuNzEwMTwvdGl0bGU+JiN4YTsJCQk8cGF0aCBpZD0icGF0aDMxMTgxMCIgaW5rc2NhcGU6Y29ubmVjdG9yLWN1cnZhdHVyZT0iMCIgc3R5bGU9ImZpbGw6I0U2RTdFODsiIGQ9Ik0zLjYsNDQuOTFjLTAuNjYtMC44Ni0xLjg1LTEuMDUtMi43OS0wLjQxICAgICBjLTAuODksMC42Ny0xLjA4LDEuODYtMC40LDIuNzdjMC42MywwLjg4LDEuODYsMS4wNywyLjc2LDAuNDNDNC4wMiw0Ny4wNyw0LjIsNDUuODQsMy42LDQ0LjkxeiIvPiYjeGE7CQk8L2c+JiN4YTsJCTxnIGlkPSJzaGFwZTcxMDItNzQiIHRyYW5zZm9ybT0idHJhbnNsYXRlKDEzLjIyMzYsLTIyLjcwMSkiPiYjeGE7CQkJPHRpdGxlIGlkPSJ0aXRsZTMxMTgxMyI+U2hlZXQuNzEwMjwvdGl0bGU+JiN4YTsJCQk8cGF0aCBpZD0icGF0aDMxMTgxNSIgaW5rc2NhcGU6Y29ubmVjdG9yLWN1cnZhdHVyZT0iMCIgc3R5bGU9ImZpbGw6I0NEOUI1RTsiIGQ9Ik0zLjI5LDQ1LjEzYy0wLjE4LDEuMi0wLjQ3LDEuNTMtMS4xNCwyLjMgICAgIGMtMC40LDAuNDctMC42OCwwLjQ3LTAuNjQsMC4xOGMtMC4yNiwwLjU1LTAuOSwwLjU4LTAuNzIsMC4yMmMtMC4xMSwwLjA3LTAuNDMsMC4yNS0wLjU3LDAuMDdjLTAuMTUtMC4xMSwwLjExLTAuNCwwLjIyLTAuNDcgICAgIGMtMC4yMi0wLjA3LTAuMzctMC4yOSwwLTAuNjJjMC4yNC0wLjI2LDAuMzEtMC41NSwwLjMxLTAuNTVDMC4zMyw0Ni40NCwwLjA0LDQ2LjMzLDAsNDYuMTFjMC40LTAuMjUsMC44My0wLjg3LDEuMjktMS4yICAgICBjMC4xMS0wLjA3LDAuMjItMC4xNSwwLjMzLTAuMThjMC44NS0yLjU3LDAuODUtMi41NywwLjg1LTIuNTdjMS40MiwxLjM2LDEuNDIsMS4zNiwxLjQyLDEuMzZMMy4yOSw0NS4xM3oiLz4mI3hhOwkJPC9nPiYjeGE7CQk8ZyBpZD0ic2hhcGU3MTAzLTc2IiB0cmFuc2Zvcm09InRyYW5zbGF0ZSgxNy4wODA3LC0zMC43MjEyKSI+JiN4YTsJCQk8dGl0bGUgaWQ9InRpdGxlMzExODE4Ij5TaGVldC43MTAzPC90aXRsZT4mI3hhOwkJCTxwYXRoIGlkPSJwYXRoMzExODIwIiBpbmtzY2FwZTpjb25uZWN0b3ItY3VydmF0dXJlPSIwIiBzdHlsZT0iZmlsbDojQ0U5QzVFOyIgZD0iTTAuNTIsNDUuODZjLTAuNSwwLjM0LTAuNjgsMS4xMS0wLjM1LDEuNjYgICAgIGMwLjMxLDAuNTMsMC45OSwwLjcyLDEuNTMsMC4zOGMwLjUzLTAuMzEsMC42Ni0xLjA0LDAuMzUtMS42MUMxLjczLDQ1LjcxLDEuMDUsNDUuNTEsMC41Miw0NS44NnoiLz4mI3hhOwkJPC9nPiYjeGE7CQk8ZyBpZD0ic2hhcGU3MTA0LTc4IiB0cmFuc2Zvcm09InRyYW5zbGF0ZSgxNC45NzM2LC0yNS40OTM0KSI+JiN4YTsJCQk8dGl0bGUgaWQ9InRpdGxlMzExODIzIj5TaGVldC43MTA0PC90aXRsZT4mI3hhOwkJCTxwYXRoIGlkPSJwYXRoMzExODI1IiBpbmtzY2FwZTpjb25uZWN0b3ItY3VydmF0dXJlPSIwIiBzdHlsZT0iZmlsbDojQ0U5QzVFOyIgZD0iTTEuNTEsNDguMDdMMCw0Ni44OWwxLjctNi4wMmwyLjU4LDEuMDYgICAgIEwxLjUxLDQ4LjA3eiIvPiYjeGE7CQk8L2c+JiN4YTsJCTxnIGlkPSJzaGFwZTcxMDUtODAiIHRyYW5zZm9ybT0idHJhbnNsYXRlKDExLjg2MjYsLTMyLjQ5OTMpIj4mI3hhOwkJCTx0aXRsZSBpZD0idGl0bGUzMTE4MjgiPlNoZWV0LjcxMDU8L3RpdGxlPiYjeGE7CQkJPHBhdGggaWQ9InBhdGgzMTE4MzAiIGlua3NjYXBlOmNvbm5lY3Rvci1jdXJ2YXR1cmU9IjAiIHN0eWxlPSJmaWxsOiNFNkU3RTg7IiBkPSJNNi40Miw0NmwtMy4wOCwyLjA3TDAsNDQuMjZsMi42NC0xLjY0aDEuNDcgICAgIEw2LjQyLDQ2eiIvPiYjeGE7CQk8L2c+JiN4YTsJPC9nPiYjeGE7PC9nPiYjeGE7PC9zdmc+;" parent="1" vertex="1">
          <mxGeometry x="397.5" y="750.5" width="27" height="68" as="geometry" />
        </mxCell>
        <mxCell id="RLjyjs_sm2IHfBNOWAbh-1" value="2" style="ellipse;whiteSpace=wrap;html=1;aspect=fixed;fillColor=#4D9900;strokeColor=none;labelBackgroundColor=none;" parent="1" vertex="1">
          <mxGeometry x="274.5" y="410.5" width="23" height="23" as="geometry" />
        </mxCell>
        <mxCell id="RLjyjs_sm2IHfBNOWAbh-3" value="1" style="ellipse;whiteSpace=wrap;html=1;aspect=fixed;fillColor=#4D9900;strokeColor=none;labelBackgroundColor=none;" parent="1" vertex="1">
          <mxGeometry x="273" y="773.5" width="23" height="23" as="geometry" />
        </mxCell>
        <mxCell id="RLjyjs_sm2IHfBNOWAbh-4" value="1" style="ellipse;whiteSpace=wrap;html=1;aspect=fixed;fillColor=#4D9900;strokeColor=none;labelBackgroundColor=none;" parent="1" vertex="1">
          <mxGeometry x="133.5" y="583.5" width="23" height="23" as="geometry" />
        </mxCell>
        <mxCell id="RLjyjs_sm2IHfBNOWAbh-10" value="8" style="ellipse;whiteSpace=wrap;html=1;aspect=fixed;fillColor=#4D9900;strokeColor=none;labelBackgroundColor=none;" parent="1" vertex="1">
          <mxGeometry x="884" y="667.5" width="23" height="23" as="geometry" />
        </mxCell>
        <mxCell id="RLjyjs_sm2IHfBNOWAbh-11" value="9" style="ellipse;whiteSpace=wrap;html=1;aspect=fixed;fillColor=#4D9900;strokeColor=none;labelBackgroundColor=none;" parent="1" vertex="1">
          <mxGeometry x="630" y="773.5" width="23" height="23" as="geometry" />
        </mxCell>
        <mxCell id="qhazRgXepDI2F2iA60wV-1" value="" style="rounded=0;whiteSpace=wrap;html=1;fillColor=#EAEDED;fontSize=22;fontColor=#FFFFFF;strokeColor=none;labelBackgroundColor=none;" parent="1" vertex="1">
          <mxGeometry x="1000" y="162" width="539" height="843" as="geometry" />
        </mxCell>
        <mxCell id="qhazRgXepDI2F2iA60wV-11" value="&lt;span&gt;developer commits the code&lt;/span&gt;" style="text;html=1;align=left;verticalAlign=top;spacingTop=-4;fontSize=14;labelBackgroundColor=none;whiteSpace=wrap;" parent="1" vertex="1">
          <mxGeometry x="1069.5" y="173.5" width="449" height="118" as="geometry" />
        </mxCell>
        <mxCell id="qhazRgXepDI2F2iA60wV-12" value="&lt;span&gt;continuous&amp;nbsp;integration trigger the build pipeline.&lt;br&gt;&lt;/span&gt;build the war file&lt;br&gt;" style="text;html=1;align=left;verticalAlign=top;spacingTop=-4;fontSize=14;labelBackgroundColor=none;whiteSpace=wrap;" parent="1" vertex="1">
          <mxGeometry x="1068.5" y="296.5" width="450" height="115" as="geometry" />
        </mxCell>
        <mxCell id="qhazRgXepDI2F2iA60wV-13" value="create docker image with required library and application file" style="text;html=1;align=left;verticalAlign=top;spacingTop=-4;fontSize=14;labelBackgroundColor=none;whiteSpace=wrap;" parent="1" vertex="1">
          <mxGeometry x="1068.5" y="414.5" width="450" height="117" as="geometry" />
        </mxCell>
        <mxCell id="qhazRgXepDI2F2iA60wV-14" value="&lt;span&gt;push the container image inside azure container registry&lt;/span&gt;" style="text;html=1;align=left;verticalAlign=top;spacingTop=-4;fontSize=14;labelBackgroundColor=none;whiteSpace=wrap;" parent="1" vertex="1">
          <mxGeometry x="1068.5" y="530.5" width="450" height="121" as="geometry" />
        </mxCell>
        <mxCell id="qhazRgXepDI2F2iA60wV-15" value="continuous deployment will trigger release pipeline, pull the container image from ACR." style="text;html=1;align=left;verticalAlign=top;spacingTop=-4;fontSize=14;labelBackgroundColor=none;whiteSpace=wrap;" parent="1" vertex="1">
          <mxGeometry x="1069.5" y="647.5" width="449" height="114" as="geometry" />
        </mxCell>
        <mxCell id="qhazRgXepDI2F2iA60wV-16" value="&lt;span&gt;Deploy container image to AKS&lt;/span&gt;" style="text;html=1;align=left;verticalAlign=top;spacingTop=-4;fontSize=14;labelBackgroundColor=none;whiteSpace=wrap;" parent="1" vertex="1">
          <mxGeometry x="1069.5" y="763.5" width="450" height="118" as="geometry" />
        </mxCell>
        <mxCell id="qhazRgXepDI2F2iA60wV-17" value="&lt;span&gt;Application will interact with Redis cache&lt;/span&gt;" style="text;html=1;align=left;verticalAlign=top;spacingTop=-4;fontSize=14;labelBackgroundColor=none;whiteSpace=wrap;" parent="1" vertex="1">
          <mxGeometry x="1069.5" y="878.5" width="449" height="41.5" as="geometry" />
        </mxCell>
        <mxCell id="qhazRgXepDI2F2iA60wV-22" value="1" style="ellipse;whiteSpace=wrap;html=1;aspect=fixed;fillColor=#4D9900;strokeColor=none;labelBackgroundColor=none;" parent="1" vertex="1">
          <mxGeometry x="1020.0000000000001" y="180" width="23" height="23" as="geometry" />
        </mxCell>
        <mxCell id="qhazRgXepDI2F2iA60wV-23" value="2" style="ellipse;whiteSpace=wrap;html=1;aspect=fixed;fillColor=#4D9900;strokeColor=none;labelBackgroundColor=none;" parent="1" vertex="1">
          <mxGeometry x="1020.0000000000001" y="301" width="23" height="23" as="geometry" />
        </mxCell>
        <mxCell id="qhazRgXepDI2F2iA60wV-24" value="3" style="ellipse;whiteSpace=wrap;html=1;aspect=fixed;fillColor=#4D9900;strokeColor=none;labelBackgroundColor=none;" parent="1" vertex="1">
          <mxGeometry x="1020.0000000000001" y="422" width="23" height="23" as="geometry" />
        </mxCell>
        <mxCell id="qhazRgXepDI2F2iA60wV-25" value="4" style="ellipse;whiteSpace=wrap;html=1;aspect=fixed;fillColor=#4D9900;strokeColor=none;labelBackgroundColor=none;" parent="1" vertex="1">
          <mxGeometry x="1019.9999999999997" y="539" width="23" height="23" as="geometry" />
        </mxCell>
        <mxCell id="qhazRgXepDI2F2iA60wV-26" value="5" style="ellipse;whiteSpace=wrap;html=1;aspect=fixed;fillColor=#4D9900;strokeColor=none;labelBackgroundColor=none;" parent="1" vertex="1">
          <mxGeometry x="1019.9999999999997" y="651.5" width="23" height="23" as="geometry" />
        </mxCell>
        <mxCell id="qhazRgXepDI2F2iA60wV-27" value="6" style="ellipse;whiteSpace=wrap;html=1;aspect=fixed;fillColor=#4D9900;strokeColor=none;labelBackgroundColor=none;" parent="1" vertex="1">
          <mxGeometry x="1019.9999999999997" y="773" width="23" height="23" as="geometry" />
        </mxCell>
        <mxCell id="qhazRgXepDI2F2iA60wV-28" value="7" style="ellipse;whiteSpace=wrap;html=1;aspect=fixed;fillColor=#4D9900;strokeColor=none;labelBackgroundColor=none;" parent="1" vertex="1">
          <mxGeometry x="1020.0000000000001" y="881.5" width="23" height="23" as="geometry" />
        </mxCell>
        <mxCell id="TB2vizf9qEm0KEf99ho6-3" value="" style="shape=image;verticalLabelPosition=bottom;labelBackgroundColor=#ffffff;verticalAlign=top;aspect=fixed;imageAspect=0;image=data:image/svg+xml,PHN2ZyB4bWxuczpkYz0iaHR0cDovL3B1cmwub3JnL2RjL2VsZW1lbnRzLzEuMS8iIHhtbG5zOmNjPSJodHRwOi8vY3JlYXRpdmVjb21tb25zLm9yZy9ucyMiIHhtbG5zOnJkZj0iaHR0cDovL3d3dy53My5vcmcvMTk5OS8wMi8yMi1yZGYtc3ludGF4LW5zIyIgeG1sbnM6c3ZnPSJodHRwOi8vd3d3LnczLm9yZy8yMDAwL3N2ZyIgeG1sbnM9Imh0dHA6Ly93d3cudzMub3JnLzIwMDAvc3ZnIiB4bWxuczpzb2RpcG9kaT0iaHR0cDovL3NvZGlwb2RpLnNvdXJjZWZvcmdlLm5ldC9EVEQvc29kaXBvZGktMC5kdGQiIHhtbG5zOmlua3NjYXBlPSJodHRwOi8vd3d3Lmlua3NjYXBlLm9yZy9uYW1lc3BhY2VzL2lua3NjYXBlIiB2ZXJzaW9uPSIxLjEiIGlkPSJzdmc3OTMzNSIgaW5rc2NhcGU6dmVyc2lvbj0iMC45Mi4zICgyNDA1NTQ2LCAyMDE4LTAzLTExKSIgc29kaXBvZGk6ZG9jbmFtZT0iZG9ja2VyLnN2ZyIgeD0iMHB4IiB5PSIwcHgiIHZpZXdCb3g9IjAgMCA5OS4yMiA4My4yMzk4NCIgeG1sOnNwYWNlPSJwcmVzZXJ2ZSIgd2lkdGg9Ijk5LjIyMDAwMSIgaGVpZ2h0PSI4My4yMzk4MzgiPjxtZXRhZGF0YSBpZD0ibWV0YWRhdGExMTIxIj48cmRmOlJERj48Y2M6V29yayByZGY6YWJvdXQ9IiI+PGRjOmZvcm1hdD5pbWFnZS9zdmcreG1sPC9kYzpmb3JtYXQ+PGRjOnR5cGUgcmRmOnJlc291cmNlPSJodHRwOi8vcHVybC5vcmcvZGMvZGNtaXR5cGUvU3RpbGxJbWFnZSIvPjxkYzp0aXRsZS8+PC9jYzpXb3JrPjwvcmRmOlJERj48L21ldGFkYXRhPjxkZWZzIGlkPSJkZWZzMTExOSI+JiN4YTsJJiN4YTsmI3hhOwkmI3hhOyYjeGE7CSYjeGE7CSYjeGE7CSYjeGE7JiN4YTsJJiN4YTsJJiN4YTsJJiN4YTsmI3hhOwkmI3hhOwkmI3hhOwkmI3hhOyYjeGE7CSYjeGE7CSYjeGE7CSYjeGE7JiN4YTsJJiN4YTsmI3hhOwkmI3hhOwkmI3hhOwkmI3hhOyYjeGE7CSYjeGE7CSYjeGE7CSYjeGE7JiN4YTsJJiN4YTsJJiN4YTsJJiN4YTsmI3hhOwkmI3hhOwkmI3hhOwkmI3hhOyYjeGE7CSYjeGE7CSYjeGE7CSYjeGE7JiN4YTsJJiN4YTsJJiN4YTsJJiN4YTsmI3hhOwkmI3hhOwkmI3hhOwkmI3hhOyYjeGE7CSYjeGE7CSYjeGE7CSYjeGE7JiN4YTsJJiN4YTsJJiN4YTsJJiN4YTsmI3hhOwkmI3hhOyYjeGE7CSYjeGE7JiN4YTsJJiN4YTsmI3hhOwkmI3hhOyYjeGE7CSYjeGE7JiN4YTsJCSYjeGE7CSYjeGE7CQkmI3hhOwkmI3hhOwkJJiN4YTsJJiN4YTsJCSYjeGE7CSYjeGE7CQkmI3hhOwkmI3hhOwkJJiN4YTsJJiN4YTsJCSYjeGE7CSYjeGE7CQkmI3hhOwkmI3hhOwkJJiN4YTsJJiN4YTsJCSYjeGE7CSYjeGE7CQkmI3hhOwkmI3hhOwkJJiN4YTsJJiN4YTsJCSYjeGE7CSYjeGE7CQkmI3hhOwkmI3hhOwkJJiN4YTsJJiN4YTsJCSYjeGE7CSYjeGE7CQkmI3hhOwkmI3hhOwkJJiN4YTsJJiN4YTsJCSYjeGE7CSYjeGE7CQkmI3hhOwkmI3hhOwkJCSYjeGE7CQkmI3hhOwkJCSYjeGE7CQkmI3hhOwkJCSYjeGE7CQkmI3hhOwkJCSYjeGE7CQk8L2RlZnM+JiN4YTs8ZmlsdGVyIGlkPSJmaWx0ZXJfMiI+JiN4YTsJPGZlR2F1c3NpYW5CbHVyIGlkPSJmZUdhdXNzaWFuQmx1cjc5MTUwIiBzdGREZXZpYXRpb249IjIiLz4mI3hhOzwvZmlsdGVyPiYjeGE7PHNvZGlwb2RpOm5hbWVkdmlldyBib3JkZXJjb2xvcj0iIzY2NjY2NiIgYm9yZGVyb3BhY2l0eT0iMSIgZml0LW1hcmdpbi1ib3R0b209IjAiIGZpdC1tYXJnaW4tbGVmdD0iMCIgZml0LW1hcmdpbi1yaWdodD0iMCIgZml0LW1hcmdpbi10b3A9IjAiIGdyaWR0b2xlcmFuY2U9IjEwIiBndWlkZXRvbGVyYW5jZT0iMTAiIGlkPSJuYW1lZHZpZXc3OTMzNyIgaW5rc2NhcGU6Y3VycmVudC1sYXllcj0ic3ZnNzkzMzUiIGlua3NjYXBlOmN4PSItMjQuMjM0MzIxIiBpbmtzY2FwZTpjeT0iNTUuNzcxNTY5IiBpbmtzY2FwZTpwYWdlb3BhY2l0eT0iMCIgaW5rc2NhcGU6cGFnZXNoYWRvdz0iMiIgaW5rc2NhcGU6d2luZG93LWhlaWdodD0iMTAxNyIgaW5rc2NhcGU6d2luZG93LW1heGltaXplZD0iMSIgaW5rc2NhcGU6d2luZG93LXdpZHRoPSIxOTIwIiBpbmtzY2FwZTp3aW5kb3cteD0iLTgiIGlua3NjYXBlOndpbmRvdy15PSItOCIgaW5rc2NhcGU6em9vbT0iMy4yOTk1NDQ5IiBvYmplY3R0b2xlcmFuY2U9IjEwIiBwYWdlY29sb3I9IiNmZmZmZmYiIHNob3dncmlkPSJmYWxzZSI+JiN4YTsJPC9zb2RpcG9kaTpuYW1lZHZpZXc+JiN4YTsmI3hhOzxwYXRoIGlkPSJwYXRoNzkxNjMiIGlua3NjYXBlOmNvbm5lY3Rvci1jdXJ2YXR1cmU9IjAiIHN0eWxlPSJmaWxsOiMzZjU3NjUiIGQ9Im0gNzMuNDYsNzggYyAyLjIzLC0xLjkxIDQuNDYsLTMuODMgNi42OSwtNS43NSAwLjc2LC0wLjY2IDEuNTksLTEuMzQgMi4zNSwtMi4wMyAtMC42MSwtMC43NiAtMS42MiwtMS4zMSAtMi40OCwtMS42NCAtMS43MywtMC42NiAtMy40NCwtMC40NCAtNS4wMywwLjQ4IC0yLjA5LDEuMiAtMi45NywzLjEyIC0yLjg5LDUuNSAwLjAzLDAuOTQgMC4yOCwxLjg0IDAuNzgsMi42NCAwLjE3LDAuMjggMC4zNywwLjU1IDAuNTgsMC44IHogbSAyLjU4LDEuODEgYyAxLjEsMC4zOCAyLjM0LDAuMzMgMy40NywwLjE0IDAuNTcsLTAuMjUgMi4wNCwtMC44OSAyLjU4LC0wLjggbCAwLjA4LDAuMDIgMC4wOCwwLjA0IGMgMC4zMywwLjE2IDAuNjQsMC4zOCAwLjgxLDAuNzIgMC40LDAuNzkgMC4yMSwxLjU3IC0wLjU3LDIuMDIgbCAtMC4yNSwwLjE1IGMgLTIuODUsMS42NSAtNS44OSwxLjQyIC04LjczLC0wLjEyIC0xLjM2LC0wLjczIC0yLjQsLTEuODIgLTMuMTcsLTMuMTYgbCAtMC4xOCwtMC4zMSBjIC0xLjgzLC0zLjE3IC0xLjU4LC02LjUgMC40OCwtOS41MiAwLjcyLC0xLjA0IDEuNjUsLTEuODUgMi43NCwtMi40OCBsIDAuNDEsLTAuMjMgYyAyLjY5LC0xLjU1IDUuNTcsLTEuNDUgOC4zMywtMC4wOSAxLjQ4LDAuNzMgMi42OCwxLjgzIDMuNTEsMy4yNiBsIDAuMTUsMC4yNiBjIDAuNiwxLjA0IC0wLjE4LDEuOTUgLTAuOTgsMi41NyAtMC45NCwwLjcyIC0xLjg4LDEuNTkgLTIuNzgsMi4zNiAtMS45OSwxLjcyIC0zLjk4LDMuNDUgLTUuOTgsNS4xNyB6IE0gOTcuNDEsNjUuMzkgaCAwLjMgYyAwLjksMCAxLjUxLDAuNjEgMS41MSwxLjUgMCwxLjI1IC0xLjIsMS41NyAtMi4yMiwxLjU3IC0xLjM2LDAgLTIuNjQsMC44MSAtMy41NywxLjczIC0xLjE3LDEuMTUgLTEuNjcsMi42MSAtMS42Nyw0LjIyIHYgNy4yOCBjIDAsMC44MyAtMC41MiwxLjUxIC0xLjM5LDEuNTEgaCAtMC4yNCBjIC0wLjg2LDAgLTEuMzgsLTAuNjggLTEuMzgsLTEuNTEgdiAtNy43IGMgMCwtMi45NSAxLjQ0LC01LjM2IDMuODQsLTcuMDYgMS40MywtMS4wMSAzLjA3LC0xLjU0IDQuODIsLTEuNTQgeiBtIC0zNy40Nyw1LjE2IGMgMS4xNiwtMS4xNyAyLjM0LC0yLjMzIDMuNTIsLTMuNDggMC4zMywtMC4zMiAxLjU4LC0xLjY4IDIuMDgsLTEuNjggaCAwLjUzIGwgMC4wNiwwLjAxIGMgMC42OSwwLjE0IDEuMiwwLjU4IDEuMiwxLjMxIHYgMC4zIGMgMCwwLjUgLTAuNTksMS4wOSAtMC45MSwxLjQzIC0wLjY5LDAuNzQgLTEuNDIsMS40NCAtMi4xMywyLjE2IGwgLTMuNjMsMy42OSBjIDEuNTcsMS41NiAzLjEzLDMuMTMgNC42OCw0LjcxIDAuNDMsMC40NCAwLjg2LDAuODggMS4yOCwxLjMyIDAuMTUsMC4xNiAwLjM3LDAuMzUgMC41LDAuNTcgMC4xMywwLjIxIDAuMjEsMC40NCAwLjIxLDAuNjggdiAwLjMxIGwgLTAuMDEsMC4wNyBjIC0wLjE3LDAuNjkgLTAuNjEsMS4yNCAtMS4zNywxLjI0IGggLTAuMjQgYyAtMC41LDAgLTEuMDYsLTAuNTYgLTEuNCwtMC44OCAtMC43LC0wLjY2IC0xLjM4LC0xLjM2IC0yLjA3LC0yLjAzIGwgLTIuMzEsLTIuMjcgdiAzLjYyIGMgMCwwLjg0IC0wLjUyLDEuNTEgLTEuMzgsMS41MSBoIC0wLjI0IGMgLTAuODYsMCAtMS4zOCwtMC42NyAtMS4zOCwtMS41MSBWIDYxLjIyIGMgMCwtMC44MyAwLjUyLC0xLjUgMS4zOCwtMS41IGggMC4yNCBjIDAuODYsMCAxLjM4LDAuNjcgMS4zOCwxLjUgdiA5LjMzIHogbSAtOS43NSwtMi4wMyBjIC0wLjQ2LC0wLjIxIC0xLjMxLC0wLjI5IC0xLjgsLTAuMyAtMi41MSwtMC4xIC00LjMzLDEuMzIgLTUuNCwzLjUzIC0wLjM2LDAuNzcgLTAuNTMsMS41OCAtMC41MywyLjQyIDAsMi41OCAxLjM1LDQuMzggMy42NSw1LjQ4IDAuODQsMC40IDEuOTIsMC40OCAyLjg0LDAuNDggMC44MSwwIDEuOTUsLTAuNSAyLjY2LC0wLjg0IGwgMC4xMywtMC4wNiBoIDAuNTYgbCAwLjA2LDAuMDIgYyAwLjY4LDAuMTQgMS4yLDAuNTcgMS4yLDEuMzEgdiAwLjMgYyAwLDEuODMgLTMuMzUsMi4yNSAtNC42MywyLjM0IC00LjUsMC4zMSAtNy44NywtMi4xNyAtOS4xNSwtNi40NiAtMC4yMywtMC43NSAtMC4zMywtMS40OSAtMC4zMywtMi4yNyB2IC0wLjYgYyAwLC0zLjI2IDEuNjIsLTUuODQgNC40MiwtNy41IDEuMywtMC43NyAyLjczLC0xLjE2IDQuMjUsLTEuMTYgaCAwLjU5IGMgMS42LDAgMy4wOCwwLjQ1IDQuNCwxLjM2IGwgMC4xMSwwLjA3IDAuMDcsMC4xMiBjIDAuMTQsMC4yMyAwLjI3LDAuNTEgMC4yNywwLjc5IHYgMC4zIGMgMCwwLjc2IC0wLjU4LDEuMTggLTEuMjcsMS4zMSBsIC0wLjA2LDAuMDEgaCAtMC4xOCBjIC0wLjQ1LDAgLTEuNDYsLTAuNDYgLTEuODYsLTAuNjUgeiBtIC0yNy40Miw1LjcxIGMgMCwyLjI5IDEuMTIsMy45NyAzLjA1LDUuMTUgMC45MSwwLjU2IDEuOSwwLjgxIDIuOTYsMC44MSAyLjI2LDAgMy45MywtMS4xNSA1LjA5LC0zLjA1IDAuNTYsLTAuOTEgMC44MSwtMS45MSAwLjgxLC0yLjk3IDAsLTIuMTIgLTEuMDMsLTMuNzUgLTIuNzgsLTQuOTIgLTAuOTYsLTAuNjUgLTIuMDIsLTAuOTcgLTMuMTgsLTAuOTcgLTIuNTIsMCAtNC4zMywxLjI3IC01LjQyLDMuNTMgLTAuMzcsMC43NiAtMC41MywxLjU4IC0wLjUzLDIuNDIgeiBtIDUuNjUsLTguOTYgaCAwLjQyIGMgMy40OSwwIDYuMTQsMS42OSA3LjgxLDQuNzMgMC42OCwxLjIyIDEuMDMsMi41NCAxLjAzLDMuOTQgdiAwLjU5IGMgMCwzLjI2IC0xLjYsNS44NiAtNC40MSw3LjUxIC0xLjMsMC43NiAtMi43NCwxLjE1IC00LjI1LDEuMTUgaCAtMC42IGMgLTMuMjYsMCAtNS44NSwtMS42MSAtNy41LC00LjQxIC0wLjc3LC0xLjMgLTEuMTYsLTIuNzQgLTEuMTYsLTQuMjUgdiAtMC41OSBjIDAsLTMuMjcgMS42MiwtNS44NSA0LjQxLC03LjUxIDEuMzEsLTAuNzcgMi43NCwtMS4xNiA0LjI1LC0xLjE2IHogTSAzLjA4LDc0LjIzIGMgMCwyLjM2IDEuMTQsNC4xMyAzLjIsNS4yNiAwLjg0LDAuNDUgMS43NCwwLjcgMi42OSwwLjcgMi4zMSwwIDQuMDMsLTEuMDkgNS4yMSwtMy4wNSAwLjU1LC0wLjkxIDAuODEsLTEuOTEgMC44MSwtMi45NyAwLC0yLjA0IC0wLjk3LC0zLjYzIC0yLjYyLC00LjgyIC0wLjk5LC0wLjcxIC0yLjEyLC0xLjA3IC0zLjM0LC0xLjA3IC0yLjUyLDAgLTQuMzMsMS4yNyAtNS40MiwzLjUzIC0wLjM3LDAuNzYgLTAuNTMsMS41OCAtMC41MywyLjQyIHogbSAxMS45MSwtNi43MiB2IC02LjM1IGMgMCwtMC44MyAwLjUyLC0xLjUgMS4zOCwtMS41IGggMC4yNCBjIDAuODcsMCAxLjM4LDAuNjcgMS4zOCwxLjUgdiAxMy4zNyBjIDAsMy4yNiAtMS42MSw1Ljg1IC00LjQxLDcuNTEgLTEuMywwLjc2IC0yLjc0LDEuMTYgLTQuMjUsMS4xNiBIIDguNzMgQyA1LjQ3LDgzLjIgMi44OCw4MS41OCAxLjIzLDc4Ljc4IDAuNDYsNzcuNDggMC4wNyw3Ni4wNCAwLjA3LDc0LjUzIHYgLTAuNTkgYyAwLC0zLjI2IDEuNjEsLTUuODYgNC40MSwtNy41MSAxLjMxLC0wLjc3IDIuNzQsLTEuMTYgNC4yNSwtMS4xNiBoIDAuNiBjIDIuMjEsMCA0LjA4LDAuODUgNS42NiwyLjI0IHoiLz4mI3hhOyYjeGE7PHBhdGggaWQ9InBhdGg3OTE3MSIgaW5rc2NhcGU6Y29ubmVjdG9yLWN1cnZhdHVyZT0iMCIgc3R5bGU9ImZpbGw6IzM5NGQ1NCIgZD0ibSA1Ny4yMywxNy43NSBoIDguODcgdiA5LjA3IGggNC40OSBjIDIuMDcsMCA0LjIsLTAuMzcgNi4xNiwtMS4wNCAwLjk2LC0wLjMyIDIuMDUsLTAuNzggMywtMS4zNSAtMS4yNiwtMS42NCAtMS44OSwtMy43IC0yLjA4LC01Ljc0IC0wLjI2LC0yLjc2IDAuMywtNi4zNyAyLjE3LC04LjUzIGwgMC45NCwtMS4wOCAxLjExLDAuODkgYyAyLjgsMi4yNSA1LjE1LDUuMzkgNS41Niw4Ljk3IDMuMzcsLTAuOTkgNy4zMywtMC43NiAxMC4zLDAuOTYgbCAxLjIyLDAuNyAtMC42NCwxLjI1IEMgOTUuODEsMjYuNzYgOTAuNTYsMjguMjcgODUuNDMsMjggNzcuNzUsNDcuMTQgNjEuMDIsNTYuMiA0MC43NSw1Ni4yIDMwLjI3LDU2LjIgMjAuNjYsNTIuMjggMTUuMTgsNDIuOTggTCAxNS4wOSw0Mi44MyAxNC4zLDQxLjIxIEMgMTIuNDUsMzcuMTIgMTEuODMsMzIuNjQgMTIuMjUsMjguMTYgbCAwLjEyLC0xLjM0IGggNy41OSB2IC05LjA3IGggOC44NyBWIDguODcgSCA0Ni41OCBWIDAgaCAxMC42NCB6Ii8+JiN4YTs8cGF0aCBkPSJtIDg1Ljk4MDMsMjEuMTAwMzMxIGMgMC41OSwtNC42MiAtMi44NywtOC4yNSAtNS4wMiwtOS45OCAtMi40NywyLjg2IC0yLjg1LDEwLjM1IDEuMDMsMTMuNTEgLTIuMTcsMS45MiAtNi43MywzLjY2IC0xMS40LDMuNjYgaCAtNTYuODcgYyAtMC40NSw0Ljg4IDAuNDEsOS4zNyAyLjM2LDEzLjIyIGwgMC42NSwxLjE4IGMgMC40MSwwLjY5IDAuODYsMS4zNiAxLjM0LDIuMDEgdiAwIGMgMi4zNCwwLjE1IDQuNDksMC4yIDYuNDYsMC4xNiAwLDAgMCwwIDAuMDEsMCAzLjg3LC0wLjA5IDcuMDMsLTAuNTQgOS40MywtMS4zNyAwLjM2LC0wLjEzIDAuNzUsMC4wNiAwLjg3LDAuNDIgMC4xMiwwLjM1IC0wLjA3LDAuNzQgLTAuNDIsMC44NyAtMC4zMiwwLjExIC0wLjY1LDAuMjEgLTEsMC4zMSB2IDAgYyAtMS44OSwwLjU0IC0zLjkxLDAuOSAtNi41MiwxLjA2IDAuMTYsMCAtMC4xNiwwLjAyIC0wLjE2LDAuMDIgLTAuMDksMC4wMSAtMC4yLDAuMDIgLTAuMjksMC4wMyAtMS4wMywwLjA1IC0yLjE0LDAuMDcgLTMuMjcsMC4wNyAtMS4yNCwwIC0yLjQ2LC0wLjAzIC0zLjgzLC0wLjEgbCAtMC4wMywwLjAzIGMgNC43Myw1LjMyIDEyLjE0LDguNTIgMjEuNDMsOC41MiAxOS42NSwwIDM2LjMyLC04LjcyIDQzLjcsLTI4LjI4IDUuMjQsMC41NCAxMC4yNywtMC43OSAxMi41NiwtNS4yNiAtMy42NCwtMi4xMSAtOC4zMywtMS40NCAtMTEuMDMsLTAuMDggeiIgc3R5bGU9ImZpbGw6IzAwYWFkYSIgaW5rc2NhcGU6Y29ubmVjdG9yLWN1cnZhdHVyZT0iMCIgaWQ9InBhdGg3OTE4MSIvPiYjeGE7PHBhdGggZD0ibSA4NS45Nzk3NiwyMS4xMDI3MjEgYyAwLjU5LC00LjYzIC0yLjg3LC04LjI2IC01LjAxLC05Ljk4IC0yLjQ4LDIuODYgLTIuODYsMTAuMzUgMS4wMiwxMy41MSAtMi4xNywxLjkyIC02LjczLDMuNjYgLTExLjQsMy42NiBoIC01My41IGMgLTAuMjMsNy40NyAyLjU0LDEzLjE0IDcuNDQsMTYuNTcgMCwwIDAsMCAwLjAxLDAgMy44NywtMC4wOSA3LjAzLC0wLjU1IDkuNDMsLTEuMzggMC4zNiwtMC4xMiAwLjc1LDAuMDcgMC44NywwLjQzIDAuMTIsMC4zNSAtMC4wNywwLjc0IC0wLjQyLDAuODYgLTAuMzIsMC4xMiAtMC42NSwwLjIyIC0xLDAuMzIgdiAwIGMgLTEuODksMC41MyAtNC4wOCwwLjk0IC02LjY5LDEuMTEgMCwwIC0wLjA3LC0wLjA3IC0wLjA3LC0wLjA2IDYuNjksMy40MyAxNi4zOSwzLjQxIDI3LjUxLC0wLjg2IDEyLjQ3LC00Ljc5IDI0LjA3LC0xMy45MSAzMi4xNiwtMjQuMzUgLTAuMTIsMC4wNSAtMC4yNCwwLjExIC0wLjM1LDAuMTcgeiIgc3R5bGU9ImZpbGw6IzI0YjhlYiIgaW5rc2NhcGU6Y29ubmVjdG9yLWN1cnZhdHVyZT0iMCIgaWQ9InBhdGg3OTE4OSIvPiYjeGE7PHBhdGggZD0ibSAxMy44MzEyMywzNC4yMjAzMzEgYyAwLjM1LDIuNjEgMS4xMiw1LjA2IDIuMjUsNy4yOCBsIDAuNjUsMS4xOSBjIDAuNDEsMC42OSAwLjg1LDEuMzYgMS4zNCwyLjAxIDIuMzQsMC4xNSA0LjQ5LDAuMiA2LjQ2LDAuMTYgMy44OCwtMC4wOSA3LjA0LC0wLjU0IDkuNDQsLTEuMzggMC4zNiwtMC4xMiAwLjc0LDAuMDcgMC44NywwLjQzIDAuMTIsMC4zNSAtMC4wNywwLjc0IC0wLjQyLDAuODcgLTAuMzIsMC4xMSAtMC42NiwwLjIxIC0xLDAuMzEgdiAwIGMgLTEuODksMC41NCAtNC4wNywwLjkyIC02LjY4LDEuMDggLTAuMDksMC4wMSAtMC4yNSwwLjAxIC0wLjM0LDAuMDIgLTEuMDIsMC4wNSAtMi4xMiwwLjA5IC0zLjI2LDAuMDkgLTEuMjQsMCAtMi41MSwtMC4wMiAtMy44NywtMC4wOSA0Ljc0LDUuMzIgMTIuMTksOC41MyAyMS40OCw4LjUzIDE2LjgyLDAgMzEuNDYsLTYuMzkgMzkuOTYsLTIwLjUgeiIgc3R5bGU9ImZpbGw6IzAwOGJiOCIgaW5rc2NhcGU6Y29ubmVjdG9yLWN1cnZhdHVyZT0iMCIgaWQ9InBhdGg3OTE5NyIvPiYjeGE7PHBhdGggZD0ibSAxNy42MDM4NiwzNC4yMTgzNDEgYyAxLjAxLDQuNTkgMy40Miw4LjE5IDYuOTMsMTAuNjQgMy44OCwtMC4wOCA3LjA0LC0wLjU0IDkuNDQsLTEuMzcgMC4zNSwtMC4xMyAwLjc0LDAuMDYgMC44NywwLjQyIDAuMTIsMC4zNiAtMC4wNywwLjc0IC0wLjQzLDAuODcgLTAuMzIsMC4xMSAtMC42NSwwLjIxIC0wLjk5LDAuMzEgdiAwIGMgLTEuODksMC41NCAtNC4xMiwwLjkyIC02LjczLDEuMDkgNi42OSwzLjQzIDE2LjM2LDMuMzggMjcuNDcsLTAuODkgNi43MywtMi41OSAxMy4yLC02LjQzIDE5LjAxLC0xMS4wNyB6IiBzdHlsZT0iZmlsbDojMDM5YmM2IiBpbmtzY2FwZTpjb25uZWN0b3ItY3VydmF0dXJlPSIwIiBpZD0icGF0aDc5MjA1Ii8+JiN4YTsmI3hhOzxwYXRoIGlkPSJwYXRoNzkyMTQiIGlua3NjYXBlOmNvbm5lY3Rvci1jdXJ2YXR1cmU9IjAiIHN0eWxlPSJmaWxsOiMzOTRkNTQiIGQ9Im0gMjMuMTYsNDYuMjUgYyAxLjEzLDAgMi4yMSwtMC4wMyAzLjI0LC0wLjA5IDAuMDksLTAuMDEgMC4xNywtMC4wMSAwLjI2LC0wLjAyIDAuMDEsMCAwLjAxLDAgMC4wMSwwIDIuNjEsLTAuMTYgNC44NywtMC41MSA2Ljc1LC0xLjA1IHYgMCBjIDAuMzUsLTAuMDkgMC42OCwtMC4yIDEsLTAuMzEgMC4zNSwtMC4xMiAwLjU0LC0wLjUxIDAuNDIsLTAuODcgLTAuMTIsLTAuMzUgLTAuNTEsLTAuNTQgLTAuODcsLTAuNDIgLTIuNCwwLjgzIC01LjU2LDEuMjkgLTkuNDMsMS4zNyB2IDAgYyAtMS45OCwwLjA1IC00LjEzLDAgLTYuNDcsLTAuMTUgdiAwIGMgLTAuMTIsLTAuMDEgLTAuMjQsLTAuMDIgLTAuMzYsLTAuMDMgLTAuMzcsLTAuMDIgLTAuNywwLjI2IC0wLjcyLDAuNjQgLTAuMDMsMC4zNyAwLjI1LDAuNyAwLjYzLDAuNzMgMC40OCwwLjAzIDAuOTUsMC4wNiAxLjQxLDAuMDggMC4wNywwIDAuMTQsMC4wMSAwLjIyLDAuMDEgMS4zNiwwLjA3IDIuNjcsMC4xMSAzLjkxLDAuMTEgeiIvPiYjeGE7PHBhdGggZD0ibSAyNy44ODI2LDE5Ljg2OTIzMSBoIDAuNjEgdiA2LjQgaCAtMC42MSB6IG0gLTEuMTYsMCBoIDAuNjMgdiA2LjQgaCAtMC42MyB6IG0gLTEuMTcsMCBoIDAuNjMgdiA2LjQgaCAtMC42MyB6IG0gLTEuMTYsMCBoIDAuNjMgdiA2LjQgaCAtMC42MyB6IG0gLTEuMTcsMCBoIDAuNjMgdiA2LjQgaCAtMC42MyB6IG0gLTEuMTQsMCBoIDAuNjEgdiA2LjQgaCAtMC42MSB6IG0gLTAuNjQsLTAuNjQgaCA3LjY5IHYgNy42OSBoIC03LjY5IHoiIHN0eWxlPSJmaWxsOiMwMGFjZDMiIGlua3NjYXBlOmNvbm5lY3Rvci1jdXJ2YXR1cmU9IjAiIGlkPSJwYXRoNzkyMjQiLz4mI3hhOzxwYXRoIGQ9Im0gMzYuNzU0NSwxMC45OTYwNjEgaCAwLjYxIHYgNi40MSBoIC0wLjYxIHogbSAtMS4xNiwwIGggMC42MyB2IDYuNDEgaCAtMC42MyB6IG0gLTEuMTcsMCBoIDAuNjMgdiA2LjQxIGggLTAuNjMgeiBtIC0xLjE2LDAgaCAwLjYzIHYgNi40MSBoIC0wLjYzIHogbSAtMS4xNywwIGggMC42MyB2IDYuNDEgaCAtMC42MyB6IG0gLTEuMTQsMCBoIDAuNjEgdiA2LjQxIGggLTAuNjEgeiBtIC0wLjY0LC0wLjY0IGggNy42OSB2IDcuNjkgaCAtNy42OSB6IiBzdHlsZT0iZmlsbDojMDBhY2QzIiBpbmtzY2FwZTpjb25uZWN0b3ItY3VydmF0dXJlPSIwIiBpZD0icGF0aDc5MjMyIi8+JiN4YTs8cGF0aCBkPSJtIDM2Ljc1NDUsMTkuODY5MjMxIGggMC42MSB2IDYuNCBoIC0wLjYxIHogbSAtMS4xNiwwIGggMC42MyB2IDYuNCBoIC0wLjYzIHogbSAtMS4xNywwIGggMC42MyB2IDYuNCBoIC0wLjYzIHogbSAtMS4xNiwwIGggMC42MyB2IDYuNCBoIC0wLjYzIHogbSAtMS4xNywwIGggMC42MyB2IDYuNCBoIC0wLjYzIHogbSAtMS4xNCwwIGggMC42MSB2IDYuNCBoIC0wLjYxIHogbSAtMC42NCwtMC42NCBoIDcuNjkgdiA3LjY5IGggLTcuNjkgeiIgc3R5bGU9ImZpbGw6IzIwYzJlZiIgaW5rc2NhcGU6Y29ubmVjdG9yLWN1cnZhdHVyZT0iMCIgaWQ9InBhdGg3OTI0MCIvPiYjeGE7PHBhdGggZD0ibSA0NS42Mjg5LDE5Ljg2OTIzMSBoIDAuNjEgdiA2LjQgaCAtMC42MSB6IG0gLTEuMTYsMCBoIDAuNjMgdiA2LjQgaCAtMC42MyB6IG0gLTEuMTcsMCBoIDAuNjMgdiA2LjQgaCAtMC42MyB6IG0gLTEuMTYsMCBoIDAuNjMgdiA2LjQgaCAtMC42MyB6IG0gLTEuMTcsMCBoIDAuNjMgdiA2LjQgaCAtMC42MyB6IG0gLTEuMTQsMCBoIDAuNjEgdiA2LjQgaCAtMC42MSB6IG0gLTAuNjQsLTAuNjQgaCA3LjY5IHYgNy42OSBoIC03LjY5IHoiIHN0eWxlPSJmaWxsOiMwMGFjZDMiIGlua3NjYXBlOmNvbm5lY3Rvci1jdXJ2YXR1cmU9IjAiIGlkPSJwYXRoNzkyNDgiLz4mI3hhOzxwYXRoIGQ9Im0gNDUuNjI4OSwxMC45OTYwNjEgaCAwLjYxIHYgNi40MSBoIC0wLjYxIHogbSAtMS4xNiwwIGggMC42MyB2IDYuNDEgaCAtMC42MyB6IG0gLTEuMTcsMCBoIDAuNjMgdiA2LjQxIGggLTAuNjMgeiBtIC0xLjE2LDAgaCAwLjYzIHYgNi40MSBoIC0wLjYzIHogbSAtMS4xNywwIGggMC42MyB2IDYuNDEgaCAtMC42MyB6IG0gLTEuMTQsMCBoIDAuNjEgdiA2LjQxIGggLTAuNjEgeiBtIC0wLjY0LC0wLjY0IGggNy42OSB2IDcuNjkgaCAtNy42OSB6IiBzdHlsZT0iZmlsbDojMjBjMmVmIiBpbmtzY2FwZTpjb25uZWN0b3ItY3VydmF0dXJlPSIwIiBpZD0icGF0aDc5MjU2Ii8+JiN4YTs8cGF0aCBkPSJtIDU0LjUwMDgsMTkuODY5MjMxIGggMC42MSB2IDYuNCBoIC0wLjYxIHogbSAtMS4xNiwwIGggMC42MyB2IDYuNCBoIC0wLjYzIHogbSAtMS4xNywwIGggMC42MyB2IDYuNCBoIC0wLjYzIHogbSAtMS4xNiwwIGggMC42MyB2IDYuNCBoIC0wLjYzIHogbSAtMS4xNywwIGggMC42MyB2IDYuNCBoIC0wLjYzIHogbSAtMS4xNCwwIGggMC42MSB2IDYuNCBoIC0wLjYxIHogbSAtMC42NCwtMC42NCBoIDcuNjkgdiA3LjY5IGggLTcuNjkgeiIgc3R5bGU9ImZpbGw6IzIwYzJlZiIgaW5rc2NhcGU6Y29ubmVjdG9yLWN1cnZhdHVyZT0iMCIgaWQ9InBhdGg3OTI2NCIvPiYjeGE7PHBhdGggZD0ibSA1NC41MDA4LDEwLjk5NjA2MSBoIDAuNjEgdiA2LjQxIGggLTAuNjEgeiBtIC0xLjE2LDAgaCAwLjYzIHYgNi40MSBoIC0wLjYzIHogbSAtMS4xNywwIGggMC42MyB2IDYuNDEgaCAtMC42MyB6IG0gLTEuMTYsMCBoIDAuNjMgdiA2LjQxIGggLTAuNjMgeiBtIC0xLjE3LDAgaCAwLjYzIHYgNi40MSBoIC0wLjYzIHogbSAtMS4xNCwwIGggMC42MSB2IDYuNDEgaCAtMC42MSB6IG0gLTAuNjQsLTAuNjQgaCA3LjY5IHYgNy42OSBoIC03LjY5IHoiIHN0eWxlPSJmaWxsOiMwMGFjZDMiIGlua3NjYXBlOmNvbm5lY3Rvci1jdXJ2YXR1cmU9IjAiIGlkPSJwYXRoNzkyNzIiLz4mI3hhOzxwYXRoIGQ9Im0gNTQuNTAwOCwyLjEyMjkzMSBoIDAuNjEgdiA2LjQxIGggLTAuNjEgeiBtIC0xLjE2LDAgaCAwLjYzIHYgNi40MSBoIC0wLjYzIHogbSAtMS4xNywwIGggMC42MyB2IDYuNDEgaCAtMC42MyB6IG0gLTEuMTYsMCBoIDAuNjMgdiA2LjQxIGggLTAuNjMgeiBtIC0xLjE3LDAgaCAwLjYzIHYgNi40MSBoIC0wLjYzIHogbSAtMS4xNCwwIGggMC42MSB2IDYuNDEgaCAtMC42MSB6IG0gLTAuNjQsLTAuNjQgaCA3LjY5IHYgNy42OSBoIC03LjY5IHoiIHN0eWxlPSJmaWxsOiMyMGMyZWYiIGlua3NjYXBlOmNvbm5lY3Rvci1jdXJ2YXR1cmU9IjAiIGlkPSJwYXRoNzkyODAiLz4mI3hhOzxwYXRoIGQ9Im0gNjMuMzc0LDE5Ljg2OTIzMSBoIDAuNjEgdiA2LjQgaCAtMC42MSB6IG0gLTEuMTYsMCBoIDAuNjMgdiA2LjQgaCAtMC42MyB6IG0gLTEuMTcsMCBoIDAuNjMgdiA2LjQgaCAtMC42MyB6IG0gLTEuMTYsMCBoIDAuNjMgdiA2LjQgaCAtMC42MyB6IG0gLTEuMTcsMCBoIDAuNjMgdiA2LjQgaCAtMC42MyB6IG0gLTEuMTQsMCBoIDAuNjEgdiA2LjQgaCAtMC42MSB6IG0gLTAuNjQsLTAuNjQgaCA3LjY5IHYgNy42OSBoIC03LjY5IHoiIHN0eWxlPSJmaWxsOiMwMGFjZDMiIGlua3NjYXBlOmNvbm5lY3Rvci1jdXJ2YXR1cmU9IjAiIGlkPSJwYXRoNzkyODgiLz4mI3hhOyYjeGE7PHBhdGggaWQ9InBhdGg3OTI5NyIgaW5rc2NhcGU6Y29ubmVjdG9yLWN1cnZhdHVyZT0iMCIgc3R5bGU9ImZpbGw6I2Q0ZWRmMSIgZD0ibSAzNy41MiwzOS4zOCBjIDEuMTcsMCAyLjEyLDAuOTUgMi4xMiwyLjEyIDAsMS4xOCAtMC45NSwyLjEzIC0yLjEyLDIuMTMgLTEuMTcsMCAtMi4xMiwtMC45NSAtMi4xMiwtMi4xMyAwLC0xLjE3IDAuOTUsLTIuMTIgMi4xMiwtMi4xMiB6Ii8+JiN4YTsmI3hhOzxwYXRoIGlkPSJwYXRoNzkzMDUiIGlua3NjYXBlOmNvbm5lY3Rvci1jdXJ2YXR1cmU9IjAiIHN0eWxlPSJmaWxsOiMzOTRkNTQiIGQ9Im0gMzcuNTIsMzkuOTkgYyAwLjE5LDAgMC4zOCwwLjA0IDAuNTUsMC4xIC0wLjE5LDAuMTEgLTAuMzEsMC4zMSAtMC4zMSwwLjU0IDAsMC4zNCAwLjI4LDAuNjIgMC42MiwwLjYyIDAuMjMsMCAwLjQ0LC0wLjEzIDAuNTQsLTAuMzMgMC4wOCwwLjE4IDAuMTIsMC4zOCAwLjEyLDAuNTkgMCwwLjg0IC0wLjY4LDEuNTIgLTEuNTIsMS41MiAtMC44NCwwIC0xLjUyLC0wLjY4IC0xLjUyLC0xLjUyIDAsLTAuODQgMC42OCwtMS41MiAxLjUyLC0xLjUyIHoiLz4mI3hhOyYjeGE7PHBhdGggaWQ9InBhdGg3OTMxMyIgaW5rc2NhcGU6Y29ubmVjdG9yLWN1cnZhdHVyZT0iMCIgc3R5bGU9ImZpbGw6IzM5NGQ1NCIgZD0ibSAwLDM0Ljk5IGggNDYuNDcgNS43NSA0Ni40NyBjIC0yLjE1LC0wLjU1IC02LjgsLTEuMjggLTYuMDMsLTQuMSAtMy45MSw0LjUyIC0xMy4zMywzLjE3IC0xNS43MSwwLjk0IC0yLjY1LDMuODUgLTE4LjA3LDIuMzkgLTE5LjE0LC0wLjYxIC0zLjMyLDMuOSAtMTMuNjEsMy45IC0xNi45MywwIEMgMzkuOCwzNC4yMSAyNC4zOSwzNS42NyAyMS43NCwzMS44MyAxOS4zNiwzNC4wNiA5Ljk0LDM1LjQxIDYuMDMsMzAuODkgNi44LDMzLjcxIDIuMTUsMzQuNDQgMCwzNC45OSBaIi8+JiN4YTsmI3hhOzxwYXRoIGlkPSJwYXRoNzkzMjEiIGlua3NjYXBlOmNvbm5lY3Rvci1jdXJ2YXR1cmU9IjAiIHN0eWxlPSJmaWxsOiNiZmRiZTAiIGQ9Im0gNDMuMTcsNTQuNjcgYyAtNS4yNiwtMi40OSAtOC4xNCwtNS44OCAtOS43NSwtOS41OCAtMS45NSwwLjU1IC00LjI5LDAuOTEgLTcuMDIsMS4wNiAtMS4wMywwLjA2IC0yLjExLDAuMDkgLTMuMjQsMC4wOSAtMS4zMSwwIC0yLjY5LC0wLjA0IC00LjEzLC0wLjEyIDQuODIsNC44MiAxMC43NSw4LjUzIDIxLjcyLDguNTkgMC44MSwwLjAxIDEuNjIsLTAuMDEgMi40MiwtMC4wNCB6Ii8+JiN4YTsmI3hhOzxwYXRoIGlkPSJwYXRoNzkzMjkiIGlua3NjYXBlOmNvbm5lY3Rvci1jdXJ2YXR1cmU9IjAiIHN0eWxlPSJmaWxsOiNkNGVkZjEiIGQ9Im0gMzUuMzcsNDguNTEgYyAtMC43MiwtMC45OSAtMS40MywtMi4yMyAtMS45NCwtMy40MiAtMS45NiwwLjU2IC00LjMsMC45MiAtNy4wMywxLjA3IDEuODcsMS4wMiA0LjU1LDEuOTYgOC45NywyLjM1IHoiLz4mI3hhOzwvc3ZnPg==;" parent="1" vertex="1">
          <mxGeometry x="473" y="268" width="85.28" height="71.5" as="geometry" />
        </mxCell>
        <mxCell id="RLjyjs_sm2IHfBNOWAbh-5" value="3" style="ellipse;whiteSpace=wrap;html=1;aspect=fixed;fillColor=#4D9900;strokeColor=none;labelBackgroundColor=none;" parent="1" vertex="1">
          <mxGeometry x="389.5" y="330" width="23" height="23" as="geometry" />
        </mxCell>
        <mxCell id="TB2vizf9qEm0KEf99ho6-4" value="" style="rounded=0;orthogonalLoop=1;jettySize=auto;elbow=vertical;html=1;strokeColor=#808080;endArrow=none;" parent="1" target="RLjyjs_sm2IHfBNOWAbh-5" edge="1">
          <mxGeometry relative="1" as="geometry">
            <mxPoint x="400" y="390" as="sourcePoint" />
            <mxPoint x="470" y="300" as="targetPoint" />
            <Array as="points" />
          </mxGeometry>
        </mxCell>
        <mxCell id="TB2vizf9qEm0KEf99ho6-5" value="ACR" style="shape=image;verticalLabelPosition=bottom;labelBackgroundColor=#ffffff;verticalAlign=top;aspect=fixed;imageAspect=0;image=data:image/svg+xml,PHN2ZyB4bWxuczp2PSJodHRwOi8vc2NoZW1hcy5taWNyb3NvZnQuY29tL3Zpc2lvLzIwMDMvU1ZHRXh0ZW5zaW9ucy8iIHhtbG5zOmRjPSJodHRwOi8vcHVybC5vcmcvZGMvZWxlbWVudHMvMS4xLyIgeG1sbnM6Y2M9Imh0dHA6Ly9jcmVhdGl2ZWNvbW1vbnMub3JnL25zIyIgeG1sbnM6cmRmPSJodHRwOi8vd3d3LnczLm9yZy8xOTk5LzAyLzIyLXJkZi1zeW50YXgtbnMjIiB4bWxuczpzdmc9Imh0dHA6Ly93d3cudzMub3JnLzIwMDAvc3ZnIiB4bWxucz0iaHR0cDovL3d3dy53My5vcmcvMjAwMC9zdmciIHhtbG5zOnNvZGlwb2RpPSJodHRwOi8vc29kaXBvZGkuc291cmNlZm9yZ2UubmV0L0RURC9zb2RpcG9kaS0wLmR0ZCIgeG1sbnM6aW5rc2NhcGU9Imh0dHA6Ly93d3cuaW5rc2NhcGUub3JnL25hbWVzcGFjZXMvaW5rc2NhcGUiIHZlcnNpb249IjEuMSIgaWQ9InN2ZzU2NjExIiBpbmtzY2FwZTp2ZXJzaW9uPSIwLjkyLjMgKDI0MDU1NDYsIDIwMTgtMDMtMTEpIiBzb2RpcG9kaTpkb2NuYW1lPSJhenVyZV9jb250YWluZXJfcmVnaXN0cnkuc3ZnIiB4PSIwcHgiIHk9IjBweCIgdmlld0JveD0iMCAwIDI2Ljk0IDIzLjYzIiB4bWw6c3BhY2U9InByZXNlcnZlIiB3aWR0aD0iMjYuOTQwMDAxIiBoZWlnaHQ9IjIzLjYyOTk5OSI+PG1ldGFkYXRhIGlkPSJtZXRhZGF0YTU5OTIiPjxyZGY6UkRGPjxjYzpXb3JrIHJkZjphYm91dD0iIj48ZGM6Zm9ybWF0PmltYWdlL3N2Zyt4bWw8L2RjOmZvcm1hdD48ZGM6dHlwZSByZGY6cmVzb3VyY2U9Imh0dHA6Ly9wdXJsLm9yZy9kYy9kY21pdHlwZS9TdGlsbEltYWdlIi8+PGRjOnRpdGxlLz48L2NjOldvcms+PC9yZGY6UkRGPjwvbWV0YWRhdGE+PGRlZnMgaWQ9ImRlZnM1OTkwIi8+JiN4YTs8ZmlsdGVyIGlkPSJmaWx0ZXJfMiI+JiN4YTsJPGZlR2F1c3NpYW5CbHVyIGlkPSJmZUdhdXNzaWFuQmx1cjU2NTI0IiBzdGREZXZpYXRpb249IjIiLz4mI3hhOzwvZmlsdGVyPiYjeGE7PHNvZGlwb2RpOm5hbWVkdmlldyBib3JkZXJjb2xvcj0iIzY2NjY2NiIgYm9yZGVyb3BhY2l0eT0iMSIgZml0LW1hcmdpbi1ib3R0b209IjAiIGZpdC1tYXJnaW4tbGVmdD0iMCIgZml0LW1hcmdpbi1yaWdodD0iMCIgZml0LW1hcmdpbi10b3A9IjAiIGdyaWR0b2xlcmFuY2U9IjEwIiBndWlkZXRvbGVyYW5jZT0iMTAiIGlkPSJuYW1lZHZpZXc1NjYxMyIgaW5rc2NhcGU6Y3VycmVudC1sYXllcj0ic3ZnNTY2MTEiIGlua3NjYXBlOmN4PSItMy4yMzMzOTE1IiBpbmtzY2FwZTpjeT0iMy4zOTE1MjcxIiBpbmtzY2FwZTpwYWdlb3BhY2l0eT0iMCIgaW5rc2NhcGU6cGFnZXNoYWRvdz0iMiIgaW5rc2NhcGU6d2luZG93LWhlaWdodD0iMTAxNyIgaW5rc2NhcGU6d2luZG93LW1heGltaXplZD0iMSIgaW5rc2NhcGU6d2luZG93LXdpZHRoPSIxOTIwIiBpbmtzY2FwZTp3aW5kb3cteD0iLTgiIGlua3NjYXBlOndpbmRvdy15PSItOCIgaW5rc2NhcGU6em9vbT0iMTUuMjM5OTUyIiBvYmplY3R0b2xlcmFuY2U9IjEwIiBwYWdlY29sb3I9IiNmZmZmZmYiIHNob3dncmlkPSJmYWxzZSI+JiN4YTsJPC9zb2RpcG9kaTpuYW1lZHZpZXc+JiN4YTs8djpkb2N1bWVudFByb3BlcnRpZXMgdjpsYW5nSUQ9IjIwNTciIHY6bWV0cmljPSJ0cnVlIiB2OnZpZXdNYXJrdXA9ImZhbHNlIi8+JiN4YTsmI3hhOzxwYXRoIGlkPSJwYXRoNTY1MzciIGlua3NjYXBlOmNvbm5lY3Rvci1jdXJ2YXR1cmU9IjAiIHN0eWxlPSJmaWxsOiM1OWI0ZDkiIGQ9Ik0gOC4xOCwxOC4wMyBIIDQuNDMgQyAxLjkzLDE3LjM5IDAsMTUuMzYgMCwxMi42NyAwLDEwLjQ0IDEuNCw4LjQgMy4yOSw3LjYzIDMuMjcsNy40IDMuMjYsNy4xNiAzLjI2LDYuOTMgMy4yNiwzLjEgNi4yNywwIDkuOTgsMCBjIDIuMDQsMCAzLjk3LDAuOTUgNS4yNCwyLjU5IDAuNzYsLTAuNCAxLjYsLTAuNiAyLjQ1LC0wLjYgMi45NCwwIDUuNDksMi42OSA1LjU5LDUuNyBMIDEzLjIyLDMuNDIgOC4xOCw2LjU1IFoiLz4mI3hhOyYjeGE7PHBhdGggaWQ9InBhdGg1NjU0NyIgaW5rc2NhcGU6Y29ubmVjdG9yLWN1cnZhdHVyZT0iMCIgc3R5bGU9ImZpbGw6Izk1OTU5NSIgZD0iTSAyNi45NCwyMC44OCAxMy4xLDIzLjYgMTMuMTYsMTMuNTggMjYuOTQsMTYuMjEgWiBNIDEzLjE1LDQuNzMgMjYuOTQsMTAuMDcgdiA1LjM2IEwgMTMuMTcsMTIuNDEgWiIvPiYjeGE7JiN4YTsmI3hhOzxwYXRoIGlkPSJwYXRoNTY1NTkiIGlua3NjYXBlOmNvbm5lY3Rvci1jdXJ2YXR1cmU9IjAiIHN0eWxlPSJmaWxsOiNiM2I0YjUiIGQ9Ik0gMTMuMTcsMTIuNCA5LjQyLDE0LjIgViA3LjA2IGwgMy43MywtMi4zMyB6IG0gMTMuMTQsMi40MSAtMTIuNSwtMi45NCB2IC02LjQgbCAxMi41LDQuNzUgeiBtIC02Ljg4LC0yLjMgMS4yNSwwLjM2IFYgOC42OSBMIDE5LjQzLDguMjQgWiBNIDE4LjE4LDcuODMgMTYuOTMsNy4zNyB2IDQuNDYgbCAxLjI1LDAuMzYgeiBtIDMuNzUsNS4zOSAxLjI0LDAuMzMgMC4wMiwtMy45NyAtMS4yNiwtMC40NCB6IG0gLTcuNSwtMi4wNSAxLjI1LDAuMzMgViA2Ljk0IEwgMTQuNDMsNi41MiBaIG0gMTEuMjUsLTAuNzEgLTEuMjUsLTAuNDUgdiAzLjg4IGwgMS4yNSwwLjM1IHogbSAtMTEuODcsNC4xOSB2IDguMjYgbCAxMi41LC0yLjM2IHYgLTMuOTIgeiBtIDAuNjIsNy4yOSB2IC02LjM1IGwgMS4yNSwwLjE2IHYgNS45OCB6IG0gMy43NSwtMC42NSAtMS4yNSwwLjI0IHYgLTUuNjIgbCAxLjI1LDAuMTkgeiBtIDEuMjUsLTAuMTggdiAtNC44OCBsIDEuMjUsMC4xNiB2IDQuNDggeiBtIDMuNzUsLTAuNjggLTEuMjUsMC4yMiB2IC00LjEgbCAxLjI1LDAuMTkgeiBtIDIuNTUsLTAuNDIgLTEuMywwLjI0IHYgLTMuMzggbCAxLjIxLDAuMTYgeiIvPiYjeGE7JiN4YTsmI3hhOzxwYXRoIGlkPSJwYXRoNTY1NjkiIGlua3NjYXBlOmNvbm5lY3Rvci1jdXJ2YXR1cmU9IjAiIHN0eWxlPSJmaWxsOiM5NTk1OTUiIGQ9Im0gMTAuNjksMTIuMjggLTAuNjMsMC4zOCBWIDcuNTkgbCAwLjYzLC0wLjM1IHogbSAxLjI0LC01Ljc4IC0wLjYyLDAuNDQgLTAuMDEsNC45MyAwLjYzLC0wLjM1IHoiLz4mI3hhOyYjeGE7PHBhdGggaWQ9InBhdGg1NjU3OSIgaW5rc2NhcGU6Y29ubmVjdG9yLWN1cnZhdHVyZT0iMCIgc3R5bGU9ImZpbGw6I2IzYjRiNSIgZD0iTSA5LjQyLDIxLjMyIDkuNCwxNS40NiAxMy4xNiwxMy41OSAxMy4xOCwyMy42MyBaIi8+JiN4YTsmI3hhOyYjeGE7PHBhdGggaWQ9InBhdGg1NjU4OSIgaW5rc2NhcGU6Y29ubmVjdG9yLWN1cnZhdHVyZT0iMCIgc3R5bGU9ImZpbGw6Izk1OTU5NSIgZD0iTSAxMC42MSwyMS4zIDEwLjA0LDIxIHYgLTQuOTUgbCAwLjU3LC0wLjI2IHogbSAxLjM0LC02LjEzIC0wLjYyLDAuMjggLTAuMDIsNi4yNCAwLjY0LDAuMzQgeiIvPiYjeGE7JiN4YTs8cGF0aCBpZD0icGF0aDU2NTk3IiBpbmtzY2FwZTpjb25uZWN0b3ItY3VydmF0dXJlPSIwIiBzdHlsZT0iZmlsbDojN2E3YTdhIiBkPSJtIDI1LjY3LDEwLjg4IC0xMS4yNCwtMy44OSAwLjAyLC0wLjUgMTEuMjIsMy45OCB6IG0gLTAuMDMsNi4xNSAtMTEuMTksLTEuNDQgdiAwLjUgbCAxMS4yLDEuMzYgeiBNIDExLjkzLDcuMTcgViA2LjUzIEwgMTAuMTIsNy41NyAxMC4wOSw4LjEgWiBtIC0xLjg5LDkuMjUgMS45MSwtMC43MSB2IC0wLjU1IGwgLTEuOTEsMC44OSB6Ii8+JiN4YTsmI3hhOyYjeGE7PC9zdmc+;" parent="1" vertex="1">
          <mxGeometry x="610" y="396.5" width="52" height="47" as="geometry" />
        </mxCell>
        <mxCell id="TB2vizf9qEm0KEf99ho6-6" style="rounded=0;orthogonalLoop=1;jettySize=auto;elbow=vertical;html=1;strokeColor=#808080;startArrow=none;" parent="1" edge="1">
          <mxGeometry relative="1" as="geometry">
            <mxPoint x="560" y="296" as="sourcePoint" />
            <mxPoint x="635" y="390" as="targetPoint" />
            <Array as="points">
              <mxPoint x="635" y="296" />
            </Array>
          </mxGeometry>
        </mxCell>
        <mxCell id="RLjyjs_sm2IHfBNOWAbh-7" value="4" style="ellipse;whiteSpace=wrap;html=1;aspect=fixed;fillColor=#4D9900;strokeColor=none;labelBackgroundColor=none;" parent="1" vertex="1">
          <mxGeometry x="624.5" y="330" width="23" height="23" as="geometry" />
        </mxCell>
        <mxCell id="TB2vizf9qEm0KEf99ho6-11" value="AKS" style="aspect=fixed;html=1;points=[];align=center;image;fontSize=12;image=img/lib/azure2/containers/Kubernetes_Services.svg;" parent="1" vertex="1">
          <mxGeometry x="861.5" y="520.5" width="68" height="60" as="geometry" />
        </mxCell>
        <mxCell id="TB2vizf9qEm0KEf99ho6-12" value="continuous integration build pipeline" style="sketch=0;aspect=fixed;html=1;points=[];align=center;image;fontSize=12;image=img/lib/mscae/Azure_Pipelines.svg;fontFamily=Helvetica;fontColor=rgb(0, 0, 0);strokeColor=rgb(0, 0, 0);fillColor=rgb(255, 255, 255);" parent="1" vertex="1">
          <mxGeometry x="864" y="385.5" width="43" height="48" as="geometry" />
        </mxCell>
        <mxCell id="TB2vizf9qEm0KEf99ho6-15" style="rounded=0;orthogonalLoop=1;jettySize=auto;elbow=vertical;html=1;strokeColor=#808080;startArrow=none;" parent="1" source="TB2vizf9qEm0KEf99ho6-16" edge="1">
          <mxGeometry relative="1" as="geometry">
            <mxPoint x="675" y="422" as="sourcePoint" />
            <mxPoint x="845" y="422" as="targetPoint" />
            <Array as="points">
              <mxPoint x="675" y="422" />
            </Array>
          </mxGeometry>
        </mxCell>
        <mxCell id="TB2vizf9qEm0KEf99ho6-16" value="5" style="ellipse;whiteSpace=wrap;html=1;aspect=fixed;fillColor=#4D9900;strokeColor=none;labelBackgroundColor=none;" parent="1" vertex="1">
          <mxGeometry x="750" y="410.5" width="23" height="23" as="geometry" />
        </mxCell>
        <mxCell id="TB2vizf9qEm0KEf99ho6-17" value="" style="rounded=0;orthogonalLoop=1;jettySize=auto;elbow=vertical;html=1;strokeColor=#808080;startArrow=none;endArrow=none;" parent="1" target="TB2vizf9qEm0KEf99ho6-16" edge="1">
          <mxGeometry relative="1" as="geometry">
            <mxPoint x="670" y="422" as="sourcePoint" />
            <mxPoint x="845" y="422" as="targetPoint" />
            <Array as="points" />
          </mxGeometry>
        </mxCell>
        <mxCell id="TB2vizf9qEm0KEf99ho6-20" style="edgeStyle=elbowEdgeStyle;rounded=0;orthogonalLoop=1;jettySize=auto;elbow=vertical;html=1;strokeColor=#808080;startArrow=none;" parent="1" source="TB2vizf9qEm0KEf99ho6-21" edge="1">
          <mxGeometry relative="1" as="geometry">
            <mxPoint x="894.5" y="443.5" as="sourcePoint" />
            <mxPoint x="894.5" y="518" as="targetPoint" />
          </mxGeometry>
        </mxCell>
        <mxCell id="TB2vizf9qEm0KEf99ho6-21" value="6" style="ellipse;whiteSpace=wrap;html=1;aspect=fixed;fillColor=#4D9900;strokeColor=none;labelBackgroundColor=none;" parent="1" vertex="1">
          <mxGeometry x="883.5" y="470" width="23" height="23" as="geometry" />
        </mxCell>
        <mxCell id="TB2vizf9qEm0KEf99ho6-22" value="" style="edgeStyle=elbowEdgeStyle;rounded=0;orthogonalLoop=1;jettySize=auto;elbow=vertical;html=1;strokeColor=#808080;endArrow=none;" parent="1" target="TB2vizf9qEm0KEf99ho6-21" edge="1">
          <mxGeometry relative="1" as="geometry">
            <mxPoint x="895" y="450" as="sourcePoint" />
            <mxPoint x="894.5" y="518" as="targetPoint" />
          </mxGeometry>
        </mxCell>
        <mxCell id="TB2vizf9qEm0KEf99ho6-26" value="" style="endArrow=classic;startArrow=none;html=1;rounded=0;" parent="1" source="RLjyjs_sm2IHfBNOWAbh-8" edge="1">
          <mxGeometry width="50" height="50" relative="1" as="geometry">
            <mxPoint x="710" y="550" as="sourcePoint" />
            <mxPoint x="860" y="550" as="targetPoint" />
            <Array as="points" />
          </mxGeometry>
        </mxCell>
        <mxCell id="RLjyjs_sm2IHfBNOWAbh-8" value="7" style="ellipse;whiteSpace=wrap;html=1;aspect=fixed;fillColor=#4D9900;strokeColor=none;labelBackgroundColor=none;" parent="1" vertex="1">
          <mxGeometry x="773" y="539" width="23" height="23" as="geometry" />
        </mxCell>
        <mxCell id="TB2vizf9qEm0KEf99ho6-27" value="" style="endArrow=none;startArrow=classic;html=1;rounded=0;" parent="1" target="RLjyjs_sm2IHfBNOWAbh-8" edge="1">
          <mxGeometry width="50" height="50" relative="1" as="geometry">
            <mxPoint x="710" y="550" as="sourcePoint" />
            <mxPoint x="860" y="550" as="targetPoint" />
            <Array as="points" />
          </mxGeometry>
        </mxCell>
        <mxCell id="TB2vizf9qEm0KEf99ho6-28" value="8" style="ellipse;whiteSpace=wrap;html=1;aspect=fixed;fillColor=#4D9900;strokeColor=none;labelBackgroundColor=none;" parent="1" vertex="1">
          <mxGeometry x="1020" y="968.5" width="23" height="23" as="geometry" />
        </mxCell>
        <mxCell id="TB2vizf9qEm0KEf99ho6-29" value="&lt;span&gt;Application monitoring Azure Monitor&lt;/span&gt;" style="text;html=1;align=left;verticalAlign=top;spacingTop=-4;fontSize=14;labelBackgroundColor=none;whiteSpace=wrap;" parent="1" vertex="1">
          <mxGeometry x="1068.5" y="968.5" width="449" height="41.5" as="geometry" />
        </mxCell>
        <mxCell id="TB2vizf9qEm0KEf99ho6-31" value="Azure Monitor" style="aspect=fixed;html=1;points=[];align=center;image;fontSize=12;image=img/lib/azure2/management_governance/Monitor.svg;" parent="1" vertex="1">
          <mxGeometry x="861.5" y="746" width="64" height="64" as="geometry" />
        </mxCell>
      </root>
    </mxGraphModel>
  </diagram>
</mxfile>
